<svg width="834" height="645" viewBox="0 0 834 645" fill="none" xmlns="http://www.w3.org/2000/svg">
<path d="M31 624.5H834" stroke="#CCCCCC" stroke-dasharray="4 2"/>
<path d="M31 485.25H834" stroke="#CCCCCC" stroke-dasharray="4 2"/>
<path d="M31 346H834" stroke="#CCCCCC" stroke-dasharray="4 2"/>
<path d="M31 206.75H834" stroke="#CCCCCC" stroke-dasharray="4 2"/>
<path d="M31 67.5H834" stroke="#CCCCCC" stroke-dasharray="4 2"/>
<path d="M31.5 67V625" stroke="#CCCCCC" stroke-dasharray="4 2"/>
<path d="M191.9 67V625" stroke="#CCCCCC" stroke-dasharray="4 2"/>
<path d="M352.3 67V625" stroke="#CCCCCC" stroke-dasharray="4 2"/>
<path d="M512.7 67V625" stroke="#CCCCCC" stroke-dasharray="4 2"/>
<path d="M673.1 67V625" stroke="#CCCCCC" stroke-dasharray="4 2"/>
<path d="M833.5 67V625" stroke="#CCCCCC" stroke-dasharray="4 2"/>
<path d="M20.3145 623.055V624.355C20.3145 625.055 20.252 625.645 20.127 626.125C20.002 626.605 19.8223 626.992 19.5879 627.285C19.3535 627.578 19.0703 627.791 18.7383 627.924C18.4102 628.053 18.0391 628.117 17.625 628.117C17.2969 628.117 16.9941 628.076 16.7168 627.994C16.4395 627.912 16.1895 627.781 15.9668 627.602C15.748 627.418 15.5605 627.18 15.4043 626.887C15.248 626.594 15.1289 626.238 15.0469 625.82C14.9648 625.402 14.9238 624.914 14.9238 624.355V623.055C14.9238 622.355 14.9863 621.77 15.1113 621.297C15.2402 620.824 15.4219 620.445 15.6562 620.16C15.8906 619.871 16.1719 619.664 16.5 619.539C16.832 619.414 17.2031 619.352 17.6133 619.352C17.9453 619.352 18.25 619.393 18.5273 619.475C18.8086 619.553 19.0586 619.68 19.2773 619.855C19.4961 620.027 19.6816 620.258 19.834 620.547C19.9902 620.832 20.1094 621.182 20.1914 621.596C20.2734 622.01 20.3145 622.496 20.3145 623.055ZM19.2246 624.531V622.873C19.2246 622.49 19.2012 622.154 19.1543 621.865C19.1113 621.572 19.0469 621.322 18.9609 621.115C18.875 620.908 18.7656 620.74 18.6328 620.611C18.5039 620.482 18.3535 620.389 18.1816 620.33C18.0137 620.268 17.8242 620.236 17.6133 620.236C17.3555 620.236 17.127 620.285 16.9277 620.383C16.7285 620.477 16.5605 620.627 16.4238 620.834C16.291 621.041 16.1895 621.312 16.1191 621.648C16.0488 621.984 16.0137 622.393 16.0137 622.873V624.531C16.0137 624.914 16.0352 625.252 16.0781 625.545C16.125 625.838 16.1934 626.092 16.2832 626.307C16.373 626.518 16.4824 626.691 16.6113 626.828C16.7402 626.965 16.8887 627.066 17.0566 627.133C17.2285 627.195 17.418 627.227 17.625 627.227C17.8906 627.227 18.123 627.176 18.3223 627.074C18.5215 626.973 18.6875 626.814 18.8203 626.6C18.957 626.381 19.0586 626.102 19.125 625.762C19.1914 625.418 19.2246 625.008 19.2246 624.531Z" fill="white"/>
<path d="M13.7988 487.859V488.75H8.21484V487.971L11.0098 484.859C11.3535 484.477 11.6191 484.152 11.8066 483.887C11.998 483.617 12.1309 483.377 12.2051 483.166C12.2832 482.951 12.3223 482.732 12.3223 482.51C12.3223 482.229 12.2637 481.975 12.1465 481.748C12.0332 481.518 11.8652 481.334 11.6426 481.197C11.4199 481.061 11.1504 480.992 10.834 480.992C10.4551 480.992 10.1387 481.066 9.88477 481.215C9.63477 481.359 9.44727 481.562 9.32227 481.824C9.19727 482.086 9.13477 482.387 9.13477 482.727H8.05078C8.05078 482.246 8.15625 481.807 8.36719 481.408C8.57812 481.01 8.89062 480.693 9.30469 480.459C9.71875 480.221 10.2285 480.102 10.834 480.102C11.373 480.102 11.834 480.197 12.2168 480.389C12.5996 480.576 12.8926 480.842 13.0957 481.186C13.3027 481.525 13.4062 481.924 13.4062 482.381C13.4062 482.631 13.3633 482.885 13.2773 483.143C13.1953 483.396 13.0801 483.65 12.9316 483.904C12.7871 484.158 12.6172 484.408 12.4219 484.654C12.2305 484.9 12.0254 485.143 11.8066 485.381L9.52148 487.859H13.7988ZM16.3301 484.689L15.4629 484.467L15.8906 480.219H20.2676V481.221H16.8105L16.5527 483.541C16.709 483.451 16.9062 483.367 17.1445 483.289C17.3867 483.211 17.6641 483.172 17.9766 483.172C18.3711 483.172 18.7246 483.24 19.0371 483.377C19.3496 483.51 19.6152 483.701 19.834 483.951C20.0566 484.201 20.2266 484.502 20.3438 484.854C20.4609 485.205 20.5195 485.598 20.5195 486.031C20.5195 486.441 20.4629 486.818 20.3496 487.162C20.2402 487.506 20.0742 487.807 19.8516 488.064C19.6289 488.318 19.3477 488.516 19.0078 488.656C18.6719 488.797 18.2754 488.867 17.8184 488.867C17.4746 488.867 17.1484 488.82 16.8398 488.727C16.5352 488.629 16.2617 488.482 16.0195 488.287C15.7812 488.088 15.5859 487.842 15.4336 487.549C15.2852 487.252 15.1914 486.904 15.1523 486.506H16.1836C16.2305 486.826 16.3242 487.096 16.4648 487.314C16.6055 487.533 16.7891 487.699 17.0156 487.812C17.2461 487.922 17.5137 487.977 17.8184 487.977C18.0762 487.977 18.3047 487.932 18.5039 487.842C18.7031 487.752 18.8711 487.623 19.0078 487.455C19.1445 487.287 19.248 487.084 19.3184 486.846C19.3926 486.607 19.4297 486.34 19.4297 486.043C19.4297 485.773 19.3926 485.523 19.3184 485.293C19.2441 485.062 19.1328 484.861 18.9844 484.689C18.8398 484.518 18.6621 484.385 18.4512 484.291C18.2402 484.193 17.998 484.145 17.7246 484.145C17.3613 484.145 17.0859 484.193 16.8984 484.291C16.7148 484.389 16.5254 484.521 16.3301 484.689Z" fill="white"/>
<path d="M9.58008 345.439L8.71289 345.217L9.14062 340.969H13.5176V341.971H10.0605L9.80273 344.291C9.95898 344.201 10.1562 344.117 10.3945 344.039C10.6367 343.961 10.9141 343.922 11.2266 343.922C11.6211 343.922 11.9746 343.99 12.2871 344.127C12.5996 344.26 12.8652 344.451 13.084 344.701C13.3066 344.951 13.4766 345.252 13.5938 345.604C13.7109 345.955 13.7695 346.348 13.7695 346.781C13.7695 347.191 13.7129 347.568 13.5996 347.912C13.4902 348.256 13.3242 348.557 13.1016 348.814C12.8789 349.068 12.5977 349.266 12.2578 349.406C11.9219 349.547 11.5254 349.617 11.0684 349.617C10.7246 349.617 10.3984 349.57 10.0898 349.477C9.78516 349.379 9.51172 349.232 9.26953 349.037C9.03125 348.838 8.83594 348.592 8.68359 348.299C8.53516 348.002 8.44141 347.654 8.40234 347.256H9.43359C9.48047 347.576 9.57422 347.846 9.71484 348.064C9.85547 348.283 10.0391 348.449 10.2656 348.562C10.4961 348.672 10.7637 348.727 11.0684 348.727C11.3262 348.727 11.5547 348.682 11.7539 348.592C11.9531 348.502 12.1211 348.373 12.2578 348.205C12.3945 348.037 12.498 347.834 12.5684 347.596C12.6426 347.357 12.6797 347.09 12.6797 346.793C12.6797 346.523 12.6426 346.273 12.5684 346.043C12.4941 345.812 12.3828 345.611 12.2344 345.439C12.0898 345.268 11.9121 345.135 11.7012 345.041C11.4902 344.943 11.248 344.895 10.9746 344.895C10.6113 344.895 10.3359 344.943 10.1484 345.041C9.96484 345.139 9.77539 345.271 9.58008 345.439ZM20.3145 344.555V345.855C20.3145 346.555 20.252 347.145 20.127 347.625C20.002 348.105 19.8223 348.492 19.5879 348.785C19.3535 349.078 19.0703 349.291 18.7383 349.424C18.4102 349.553 18.0391 349.617 17.625 349.617C17.2969 349.617 16.9941 349.576 16.7168 349.494C16.4395 349.412 16.1895 349.281 15.9668 349.102C15.748 348.918 15.5605 348.68 15.4043 348.387C15.248 348.094 15.1289 347.738 15.0469 347.32C14.9648 346.902 14.9238 346.414 14.9238 345.855V344.555C14.9238 343.855 14.9863 343.27 15.1113 342.797C15.2402 342.324 15.4219 341.945 15.6562 341.66C15.8906 341.371 16.1719 341.164 16.5 341.039C16.832 340.914 17.2031 340.852 17.6133 340.852C17.9453 340.852 18.25 340.893 18.5273 340.975C18.8086 341.053 19.0586 341.18 19.2773 341.355C19.4961 341.527 19.6816 341.758 19.834 342.047C19.9902 342.332 20.1094 342.682 20.1914 343.096C20.2734 343.51 20.3145 343.996 20.3145 344.555ZM19.2246 346.031V344.373C19.2246 343.99 19.2012 343.654 19.1543 343.365C19.1113 343.072 19.0469 342.822 18.9609 342.615C18.875 342.408 18.7656 342.24 18.6328 342.111C18.5039 341.982 18.3535 341.889 18.1816 341.83C18.0137 341.768 17.8242 341.736 17.6133 341.736C17.3555 341.736 17.127 341.785 16.9277 341.883C16.7285 341.977 16.5605 342.127 16.4238 342.334C16.291 342.541 16.1895 342.812 16.1191 343.148C16.0488 343.484 16.0137 343.893 16.0137 344.373V346.031C16.0137 346.414 16.0352 346.752 16.0781 347.045C16.125 347.338 16.1934 347.592 16.2832 347.807C16.373 348.018 16.4824 348.191 16.6113 348.328C16.7402 348.465 16.8887 348.566 17.0566 348.633C17.2285 348.695 17.418 348.727 17.625 348.727C17.8906 348.727 18.123 348.676 18.3223 348.574C18.5215 348.473 18.6875 348.314 18.8203 348.1C18.957 347.881 19.0586 347.602 19.125 347.262C19.1914 346.918 19.2246 346.508 19.2246 346.031Z" fill="white"/>
<path d="M13.7227 201.719V202.328L10.1895 210.25H9.04688L12.5742 202.609H7.95703V201.719H13.7227ZM16.3301 206.189L15.4629 205.967L15.8906 201.719H20.2676V202.721H16.8105L16.5527 205.041C16.709 204.951 16.9062 204.867 17.1445 204.789C17.3867 204.711 17.6641 204.672 17.9766 204.672C18.3711 204.672 18.7246 204.74 19.0371 204.877C19.3496 205.01 19.6152 205.201 19.834 205.451C20.0566 205.701 20.2266 206.002 20.3438 206.354C20.4609 206.705 20.5195 207.098 20.5195 207.531C20.5195 207.941 20.4629 208.318 20.3496 208.662C20.2402 209.006 20.0742 209.307 19.8516 209.564C19.6289 209.818 19.3477 210.016 19.0078 210.156C18.6719 210.297 18.2754 210.367 17.8184 210.367C17.4746 210.367 17.1484 210.32 16.8398 210.227C16.5352 210.129 16.2617 209.982 16.0195 209.787C15.7812 209.588 15.5859 209.342 15.4336 209.049C15.2852 208.752 15.1914 208.404 15.1523 208.006H16.1836C16.2305 208.326 16.3242 208.596 16.4648 208.814C16.6055 209.033 16.7891 209.199 17.0156 209.312C17.2461 209.422 17.5137 209.477 17.8184 209.477C18.0762 209.477 18.3047 209.432 18.5039 209.342C18.7031 209.252 18.8711 209.123 19.0078 208.955C19.1445 208.787 19.248 208.584 19.3184 208.346C19.3926 208.107 19.4297 207.84 19.4297 207.543C19.4297 207.273 19.3926 207.023 19.3184 206.793C19.2441 206.562 19.1328 206.361 18.9844 206.189C18.8398 206.018 18.6621 205.885 18.4512 205.791C18.2402 205.693 17.998 205.645 17.7246 205.645C17.3613 205.645 17.0859 205.693 16.8984 205.791C16.7148 205.889 16.5254 206.021 16.3301 206.189Z" fill="white"/>
<path d="M5.02148 62.4219V71H3.9375V63.7754L1.75195 64.5723V63.5938L4.85156 62.4219H5.02148ZM13.5645 66.0547V67.3555C13.5645 68.0547 13.502 68.6445 13.377 69.125C13.252 69.6055 13.0723 69.9922 12.8379 70.2852C12.6035 70.5781 12.3203 70.791 11.9883 70.9238C11.6602 71.0527 11.2891 71.1172 10.875 71.1172C10.5469 71.1172 10.2441 71.0762 9.9668 70.9941C9.68945 70.9121 9.43945 70.7812 9.2168 70.6016C8.99805 70.418 8.81055 70.1797 8.6543 69.8867C8.49805 69.5938 8.37891 69.2383 8.29688 68.8203C8.21484 68.4023 8.17383 67.9141 8.17383 67.3555V66.0547C8.17383 65.3555 8.23633 64.7695 8.36133 64.2969C8.49023 63.8242 8.67188 63.4453 8.90625 63.1602C9.14062 62.8711 9.42188 62.6641 9.75 62.5391C10.082 62.4141 10.4531 62.3516 10.8633 62.3516C11.1953 62.3516 11.5 62.3926 11.7773 62.4746C12.0586 62.5527 12.3086 62.6797 12.5273 62.8555C12.7461 63.0273 12.9316 63.2578 13.084 63.5469C13.2402 63.832 13.3594 64.1816 13.4414 64.5957C13.5234 65.0098 13.5645 65.4961 13.5645 66.0547ZM12.4746 67.5312V65.873C12.4746 65.4902 12.4512 65.1543 12.4043 64.8652C12.3613 64.5723 12.2969 64.3223 12.2109 64.1152C12.125 63.9082 12.0156 63.7402 11.8828 63.6113C11.7539 63.4824 11.6035 63.3887 11.4316 63.3301C11.2637 63.2676 11.0742 63.2363 10.8633 63.2363C10.6055 63.2363 10.377 63.2852 10.1777 63.3828C9.97852 63.4766 9.81055 63.627 9.67383 63.834C9.54102 64.041 9.43945 64.3125 9.36914 64.6484C9.29883 64.9844 9.26367 65.3926 9.26367 65.873V67.5312C9.26367 67.9141 9.28516 68.252 9.32812 68.5449C9.375 68.8379 9.44336 69.0918 9.5332 69.3066C9.62305 69.5176 9.73242 69.6914 9.86133 69.8281C9.99023 69.9648 10.1387 70.0664 10.3066 70.1328C10.4785 70.1953 10.668 70.2266 10.875 70.2266C11.1406 70.2266 11.373 70.1758 11.5723 70.0742C11.7715 69.9727 11.9375 69.8145 12.0703 69.5996C12.207 69.3809 12.3086 69.1016 12.375 68.7617C12.4414 68.418 12.4746 68.0078 12.4746 67.5312ZM20.3145 66.0547V67.3555C20.3145 68.0547 20.252 68.6445 20.127 69.125C20.002 69.6055 19.8223 69.9922 19.5879 70.2852C19.3535 70.5781 19.0703 70.791 18.7383 70.9238C18.4102 71.0527 18.0391 71.1172 17.625 71.1172C17.2969 71.1172 16.9941 71.0762 16.7168 70.9941C16.4395 70.9121 16.1895 70.7812 15.9668 70.6016C15.748 70.418 15.5605 70.1797 15.4043 69.8867C15.248 69.5938 15.1289 69.2383 15.0469 68.8203C14.9648 68.4023 14.9238 67.9141 14.9238 67.3555V66.0547C14.9238 65.3555 14.9863 64.7695 15.1113 64.2969C15.2402 63.8242 15.4219 63.4453 15.6562 63.1602C15.8906 62.8711 16.1719 62.6641 16.5 62.5391C16.832 62.4141 17.2031 62.3516 17.6133 62.3516C17.9453 62.3516 18.25 62.3926 18.5273 62.4746C18.8086 62.5527 19.0586 62.6797 19.2773 62.8555C19.4961 63.0273 19.6816 63.2578 19.834 63.5469C19.9902 63.832 20.1094 64.1816 20.1914 64.5957C20.2734 65.0098 20.3145 65.4961 20.3145 66.0547ZM19.2246 67.5312V65.873C19.2246 65.4902 19.2012 65.1543 19.1543 64.8652C19.1113 64.5723 19.0469 64.3223 18.9609 64.1152C18.875 63.9082 18.7656 63.7402 18.6328 63.6113C18.5039 63.4824 18.3535 63.3887 18.1816 63.3301C18.0137 63.2676 17.8242 63.2363 17.6133 63.2363C17.3555 63.2363 17.127 63.2852 16.9277 63.3828C16.7285 63.4766 16.5605 63.627 16.4238 63.834C16.291 64.041 16.1895 64.3125 16.1191 64.6484C16.0488 64.9844 16.0137 65.3926 16.0137 65.873V67.5312C16.0137 67.9141 16.0352 68.252 16.0781 68.5449C16.125 68.8379 16.1934 69.0918 16.2832 69.3066C16.373 69.5176 16.4824 69.6914 16.6113 69.8281C16.7402 69.9648 16.8887 70.0664 17.0566 70.1328C17.2285 70.1953 17.418 70.2266 17.625 70.2266C17.8906 70.2266 18.123 70.1758 18.3223 70.0742C18.5215 69.9727 18.6875 69.8145 18.8203 69.5996C18.957 69.3809 19.0586 69.1016 19.125 68.7617C19.1914 68.418 19.2246 68.0078 19.2246 67.5312Z" fill="white"/>
<path d="M104.599 641.109V642H99.0146V641.221L101.81 638.109C102.153 637.727 102.419 637.402 102.606 637.137C102.798 636.867 102.931 636.627 103.005 636.416C103.083 636.201 103.122 635.982 103.122 635.76C103.122 635.479 103.063 635.225 102.946 634.998C102.833 634.768 102.665 634.584 102.442 634.447C102.22 634.311 101.95 634.242 101.634 634.242C101.255 634.242 100.938 634.316 100.685 634.465C100.435 634.609 100.247 634.812 100.122 635.074C99.9971 635.336 99.9346 635.637 99.9346 635.977H98.8506C98.8506 635.496 98.9561 635.057 99.167 634.658C99.3779 634.26 99.6904 633.943 100.104 633.709C100.519 633.471 101.028 633.352 101.634 633.352C102.173 633.352 102.634 633.447 103.017 633.639C103.399 633.826 103.692 634.092 103.896 634.436C104.103 634.775 104.206 635.174 104.206 635.631C104.206 635.881 104.163 636.135 104.077 636.393C103.995 636.646 103.88 636.9 103.731 637.154C103.587 637.408 103.417 637.658 103.222 637.904C103.03 638.15 102.825 638.393 102.606 638.631L100.321 641.109H104.599ZM111.114 637.055V638.355C111.114 639.055 111.052 639.645 110.927 640.125C110.802 640.605 110.622 640.992 110.388 641.285C110.153 641.578 109.87 641.791 109.538 641.924C109.21 642.053 108.839 642.117 108.425 642.117C108.097 642.117 107.794 642.076 107.517 641.994C107.239 641.912 106.989 641.781 106.767 641.602C106.548 641.418 106.36 641.18 106.204 640.887C106.048 640.594 105.929 640.238 105.847 639.82C105.765 639.402 105.724 638.914 105.724 638.355V637.055C105.724 636.355 105.786 635.77 105.911 635.297C106.04 634.824 106.222 634.445 106.456 634.16C106.69 633.871 106.972 633.664 107.3 633.539C107.632 633.414 108.003 633.352 108.413 633.352C108.745 633.352 109.05 633.393 109.327 633.475C109.608 633.553 109.858 633.68 110.077 633.855C110.296 634.027 110.481 634.258 110.634 634.547C110.79 634.832 110.909 635.182 110.991 635.596C111.073 636.01 111.114 636.496 111.114 637.055ZM110.024 638.531V636.873C110.024 636.49 110.001 636.154 109.954 635.865C109.911 635.572 109.847 635.322 109.761 635.115C109.675 634.908 109.565 634.74 109.433 634.611C109.304 634.482 109.153 634.389 108.981 634.33C108.813 634.268 108.624 634.236 108.413 634.236C108.155 634.236 107.927 634.285 107.728 634.383C107.528 634.477 107.36 634.627 107.224 634.834C107.091 635.041 106.989 635.312 106.919 635.648C106.849 635.984 106.813 636.393 106.813 636.873V638.531C106.813 638.914 106.835 639.252 106.878 639.545C106.925 639.838 106.993 640.092 107.083 640.307C107.173 640.518 107.282 640.691 107.411 640.828C107.54 640.965 107.688 641.066 107.856 641.133C108.028 641.195 108.218 641.227 108.425 641.227C108.69 641.227 108.923 641.176 109.122 641.074C109.321 640.973 109.487 640.814 109.62 640.6C109.757 640.381 109.858 640.102 109.925 639.762C109.991 639.418 110.024 639.008 110.024 638.531ZM116.071 633.422V642H114.987V634.775L112.802 635.572V634.594L115.901 633.422H116.071ZM124.638 639.691C124.638 640.211 124.517 640.652 124.274 641.016C124.036 641.375 123.712 641.648 123.302 641.836C122.896 642.023 122.437 642.117 121.925 642.117C121.413 642.117 120.952 642.023 120.542 641.836C120.132 641.648 119.808 641.375 119.569 641.016C119.331 640.652 119.212 640.211 119.212 639.691C119.212 639.352 119.276 639.041 119.405 638.76C119.538 638.475 119.724 638.227 119.962 638.016C120.204 637.805 120.489 637.643 120.817 637.529C121.149 637.412 121.515 637.354 121.913 637.354C122.437 637.354 122.903 637.455 123.313 637.658C123.724 637.857 124.046 638.133 124.28 638.484C124.519 638.836 124.638 639.238 124.638 639.691ZM123.548 639.668C123.548 639.352 123.479 639.072 123.343 638.83C123.206 638.584 123.015 638.393 122.769 638.256C122.522 638.119 122.237 638.051 121.913 638.051C121.581 638.051 121.294 638.119 121.052 638.256C120.813 638.393 120.628 638.584 120.495 638.83C120.362 639.072 120.296 639.352 120.296 639.668C120.296 639.996 120.36 640.277 120.489 640.512C120.622 640.742 120.81 640.92 121.052 641.045C121.298 641.166 121.589 641.227 121.925 641.227C122.261 641.227 122.55 641.166 122.792 641.045C123.034 640.92 123.22 640.742 123.349 640.512C123.481 640.277 123.548 639.996 123.548 639.668ZM124.438 635.689C124.438 636.104 124.329 636.477 124.11 636.809C123.892 637.141 123.593 637.402 123.214 637.594C122.835 637.785 122.405 637.881 121.925 637.881C121.437 637.881 121.001 637.785 120.618 637.594C120.239 637.402 119.942 637.141 119.728 636.809C119.513 636.477 119.405 636.104 119.405 635.689C119.405 635.193 119.513 634.771 119.728 634.424C119.946 634.076 120.245 633.811 120.624 633.627C121.003 633.443 121.435 633.352 121.919 633.352C122.407 633.352 122.841 633.443 123.22 633.627C123.599 633.811 123.896 634.076 124.11 634.424C124.329 634.771 124.438 635.193 124.438 635.689ZM123.354 635.707C123.354 635.422 123.294 635.17 123.173 634.951C123.052 634.732 122.884 634.561 122.669 634.436C122.454 634.307 122.204 634.242 121.919 634.242C121.634 634.242 121.384 634.303 121.169 634.424C120.958 634.541 120.792 634.709 120.671 634.928C120.554 635.146 120.495 635.406 120.495 635.707C120.495 636 120.554 636.256 120.671 636.475C120.792 636.693 120.96 636.863 121.175 636.984C121.39 637.105 121.64 637.166 121.925 637.166C122.21 637.166 122.458 637.105 122.669 636.984C122.884 636.863 123.052 636.693 123.173 636.475C123.294 636.256 123.354 636 123.354 635.707Z" fill="white"/>
<path d="M265.199 641.109V642H259.615V641.221L262.41 638.109C262.753 637.727 263.019 637.402 263.207 637.137C263.398 636.867 263.531 636.627 263.605 636.416C263.683 636.201 263.722 635.982 263.722 635.76C263.722 635.479 263.664 635.225 263.546 634.998C263.433 634.768 263.265 634.584 263.042 634.447C262.82 634.311 262.55 634.242 262.234 634.242C261.855 634.242 261.539 634.316 261.285 634.465C261.035 634.609 260.847 634.812 260.722 635.074C260.597 635.336 260.535 635.637 260.535 635.977H259.451C259.451 635.496 259.556 635.057 259.767 634.658C259.978 634.26 260.291 633.943 260.705 633.709C261.119 633.471 261.628 633.352 262.234 633.352C262.773 633.352 263.234 633.447 263.617 633.639C264 633.826 264.292 634.092 264.496 634.436C264.703 634.775 264.806 635.174 264.806 635.631C264.806 635.881 264.763 636.135 264.677 636.393C264.595 636.646 264.48 636.9 264.332 637.154C264.187 637.408 264.017 637.658 263.822 637.904C263.63 638.15 263.425 638.393 263.207 638.631L260.921 641.109H265.199ZM271.714 637.055V638.355C271.714 639.055 271.652 639.645 271.527 640.125C271.402 640.605 271.222 640.992 270.988 641.285C270.753 641.578 270.47 641.791 270.138 641.924C269.81 642.053 269.439 642.117 269.025 642.117C268.697 642.117 268.394 642.076 268.117 641.994C267.839 641.912 267.589 641.781 267.367 641.602C267.148 641.418 266.96 641.18 266.804 640.887C266.648 640.594 266.529 640.238 266.447 639.82C266.365 639.402 266.324 638.914 266.324 638.355V637.055C266.324 636.355 266.386 635.77 266.511 635.297C266.64 634.824 266.822 634.445 267.056 634.16C267.291 633.871 267.572 633.664 267.9 633.539C268.232 633.414 268.603 633.352 269.013 633.352C269.345 633.352 269.65 633.393 269.927 633.475C270.208 633.553 270.458 633.68 270.677 633.855C270.896 634.027 271.082 634.258 271.234 634.547C271.39 634.832 271.509 635.182 271.591 635.596C271.673 636.01 271.714 636.496 271.714 637.055ZM270.625 638.531V636.873C270.625 636.49 270.601 636.154 270.554 635.865C270.511 635.572 270.447 635.322 270.361 635.115C270.275 634.908 270.166 634.74 270.033 634.611C269.904 634.482 269.753 634.389 269.582 634.33C269.414 634.268 269.224 634.236 269.013 634.236C268.755 634.236 268.527 634.285 268.328 634.383C268.128 634.477 267.96 634.627 267.824 634.834C267.691 635.041 267.589 635.312 267.519 635.648C267.449 635.984 267.414 636.393 267.414 636.873V638.531C267.414 638.914 267.435 639.252 267.478 639.545C267.525 639.838 267.593 640.092 267.683 640.307C267.773 640.518 267.882 640.691 268.011 640.828C268.14 640.965 268.289 641.066 268.457 641.133C268.628 641.195 268.818 641.227 269.025 641.227C269.291 641.227 269.523 641.176 269.722 641.074C269.921 640.973 270.087 640.814 270.22 640.6C270.357 640.381 270.458 640.102 270.525 639.762C270.591 639.418 270.625 639.008 270.625 638.531ZM276.671 633.422V642H275.587V634.775L273.402 635.572V634.594L276.501 633.422H276.671ZM280.937 641.092H281.048C281.673 641.092 282.181 641.004 282.572 640.828C282.962 640.652 283.263 640.416 283.474 640.119C283.685 639.822 283.83 639.488 283.908 639.117C283.986 638.742 284.025 638.357 284.025 637.963V636.656C284.025 636.27 283.98 635.926 283.89 635.625C283.804 635.324 283.683 635.072 283.527 634.869C283.375 634.666 283.201 634.512 283.005 634.406C282.81 634.301 282.603 634.248 282.384 634.248C282.134 634.248 281.91 634.299 281.71 634.4C281.515 634.498 281.349 634.637 281.212 634.816C281.08 634.996 280.978 635.207 280.908 635.449C280.837 635.691 280.802 635.955 280.802 636.24C280.802 636.494 280.833 636.74 280.896 636.979C280.958 637.217 281.054 637.432 281.183 637.623C281.312 637.814 281.472 637.967 281.664 638.08C281.859 638.189 282.087 638.244 282.349 638.244C282.591 638.244 282.818 638.197 283.029 638.104C283.244 638.006 283.433 637.875 283.597 637.711C283.765 637.543 283.898 637.354 283.996 637.143C284.097 636.932 284.156 636.711 284.171 636.48H284.687C284.687 636.805 284.623 637.125 284.494 637.441C284.369 637.754 284.193 638.039 283.966 638.297C283.74 638.555 283.474 638.762 283.169 638.918C282.865 639.07 282.533 639.146 282.173 639.146C281.751 639.146 281.386 639.064 281.078 638.9C280.769 638.736 280.515 638.518 280.316 638.244C280.121 637.971 279.974 637.666 279.876 637.33C279.783 636.99 279.736 636.646 279.736 636.299C279.736 635.893 279.792 635.512 279.906 635.156C280.019 634.801 280.187 634.488 280.41 634.219C280.632 633.945 280.908 633.732 281.236 633.58C281.568 633.428 281.951 633.352 282.384 633.352C282.873 633.352 283.289 633.449 283.632 633.645C283.976 633.84 284.255 634.102 284.47 634.43C284.689 634.758 284.849 635.127 284.951 635.537C285.052 635.947 285.103 636.369 285.103 636.803V637.195C285.103 637.637 285.074 638.086 285.015 638.543C284.96 638.996 284.853 639.43 284.693 639.844C284.537 640.258 284.308 640.629 284.007 640.957C283.707 641.281 283.314 641.539 282.83 641.73C282.349 641.918 281.755 642.012 281.048 642.012H280.937V641.092Z" fill="white"/>
<path d="M425.799 641.109V642H420.215V641.221L423.01 638.109C423.354 637.727 423.619 637.402 423.807 637.137C423.998 636.867 424.131 636.627 424.205 636.416C424.283 636.201 424.322 635.982 424.322 635.76C424.322 635.479 424.264 635.225 424.146 634.998C424.033 634.768 423.865 634.584 423.643 634.447C423.42 634.311 423.15 634.242 422.834 634.242C422.455 634.242 422.139 634.316 421.885 634.465C421.635 634.609 421.447 634.812 421.322 635.074C421.197 635.336 421.135 635.637 421.135 635.977H420.051C420.051 635.496 420.156 635.057 420.367 634.658C420.578 634.26 420.891 633.943 421.305 633.709C421.719 633.471 422.229 633.352 422.834 633.352C423.373 633.352 423.834 633.447 424.217 633.639C424.6 633.826 424.893 634.092 425.096 634.436C425.303 634.775 425.406 635.174 425.406 635.631C425.406 635.881 425.363 636.135 425.277 636.393C425.195 636.646 425.08 636.9 424.932 637.154C424.787 637.408 424.617 637.658 424.422 637.904C424.23 638.15 424.025 638.393 423.807 638.631L421.521 641.109H425.799ZM432.314 637.055V638.355C432.314 639.055 432.252 639.645 432.127 640.125C432.002 640.605 431.822 640.992 431.588 641.285C431.354 641.578 431.07 641.791 430.738 641.924C430.41 642.053 430.039 642.117 429.625 642.117C429.297 642.117 428.994 642.076 428.717 641.994C428.439 641.912 428.189 641.781 427.967 641.602C427.748 641.418 427.561 641.18 427.404 640.887C427.248 640.594 427.129 640.238 427.047 639.82C426.965 639.402 426.924 638.914 426.924 638.355V637.055C426.924 636.355 426.986 635.77 427.111 635.297C427.24 634.824 427.422 634.445 427.656 634.16C427.891 633.871 428.172 633.664 428.5 633.539C428.832 633.414 429.203 633.352 429.613 633.352C429.945 633.352 430.25 633.393 430.527 633.475C430.809 633.553 431.059 633.68 431.277 633.855C431.496 634.027 431.682 634.258 431.834 634.547C431.99 634.832 432.109 635.182 432.191 635.596C432.273 636.01 432.314 636.496 432.314 637.055ZM431.225 638.531V636.873C431.225 636.49 431.201 636.154 431.154 635.865C431.111 635.572 431.047 635.322 430.961 635.115C430.875 634.908 430.766 634.74 430.633 634.611C430.504 634.482 430.354 634.389 430.182 634.33C430.014 634.268 429.824 634.236 429.613 634.236C429.355 634.236 429.127 634.285 428.928 634.383C428.729 634.477 428.561 634.627 428.424 634.834C428.291 635.041 428.189 635.312 428.119 635.648C428.049 635.984 428.014 636.393 428.014 636.873V638.531C428.014 638.914 428.035 639.252 428.078 639.545C428.125 639.838 428.193 640.092 428.283 640.307C428.373 640.518 428.482 640.691 428.611 640.828C428.74 640.965 428.889 641.066 429.057 641.133C429.229 641.195 429.418 641.227 429.625 641.227C429.891 641.227 430.123 641.176 430.322 641.074C430.521 640.973 430.688 640.814 430.82 640.6C430.957 640.381 431.059 640.102 431.125 639.762C431.191 639.418 431.225 639.008 431.225 638.531ZM439.299 641.109V642H433.715V641.221L436.51 638.109C436.854 637.727 437.119 637.402 437.307 637.137C437.498 636.867 437.631 636.627 437.705 636.416C437.783 636.201 437.822 635.982 437.822 635.76C437.822 635.479 437.764 635.225 437.646 634.998C437.533 634.768 437.365 634.584 437.143 634.447C436.92 634.311 436.65 634.242 436.334 634.242C435.955 634.242 435.639 634.316 435.385 634.465C435.135 634.609 434.947 634.812 434.822 635.074C434.697 635.336 434.635 635.637 434.635 635.977H433.551C433.551 635.496 433.656 635.057 433.867 634.658C434.078 634.26 434.391 633.943 434.805 633.709C435.219 633.471 435.729 633.352 436.334 633.352C436.873 633.352 437.334 633.447 437.717 633.639C438.1 633.826 438.393 634.092 438.596 634.436C438.803 634.775 438.906 635.174 438.906 635.631C438.906 635.881 438.863 636.135 438.777 636.393C438.695 636.646 438.58 636.9 438.432 637.154C438.287 637.408 438.117 637.658 437.922 637.904C437.73 638.15 437.525 638.393 437.307 638.631L435.021 641.109H439.299ZM445.814 637.055V638.355C445.814 639.055 445.752 639.645 445.627 640.125C445.502 640.605 445.322 640.992 445.088 641.285C444.854 641.578 444.57 641.791 444.238 641.924C443.91 642.053 443.539 642.117 443.125 642.117C442.797 642.117 442.494 642.076 442.217 641.994C441.939 641.912 441.689 641.781 441.467 641.602C441.248 641.418 441.061 641.18 440.904 640.887C440.748 640.594 440.629 640.238 440.547 639.82C440.465 639.402 440.424 638.914 440.424 638.355V637.055C440.424 636.355 440.486 635.77 440.611 635.297C440.74 634.824 440.922 634.445 441.156 634.16C441.391 633.871 441.672 633.664 442 633.539C442.332 633.414 442.703 633.352 443.113 633.352C443.445 633.352 443.75 633.393 444.027 633.475C444.309 633.553 444.559 633.68 444.777 633.855C444.996 634.027 445.182 634.258 445.334 634.547C445.49 634.832 445.609 635.182 445.691 635.596C445.773 636.01 445.814 636.496 445.814 637.055ZM444.725 638.531V636.873C444.725 636.49 444.701 636.154 444.654 635.865C444.611 635.572 444.547 635.322 444.461 635.115C444.375 634.908 444.266 634.74 444.133 634.611C444.004 634.482 443.854 634.389 443.682 634.33C443.514 634.268 443.324 634.236 443.113 634.236C442.855 634.236 442.627 634.285 442.428 634.383C442.229 634.477 442.061 634.627 441.924 634.834C441.791 635.041 441.689 635.312 441.619 635.648C441.549 635.984 441.514 636.393 441.514 636.873V638.531C441.514 638.914 441.535 639.252 441.578 639.545C441.625 639.838 441.693 640.092 441.783 640.307C441.873 640.518 441.982 640.691 442.111 640.828C442.24 640.965 442.389 641.066 442.557 641.133C442.729 641.195 442.918 641.227 443.125 641.227C443.391 641.227 443.623 641.176 443.822 641.074C444.021 640.973 444.188 640.814 444.32 640.6C444.457 640.381 444.559 640.102 444.625 639.762C444.691 639.418 444.725 639.008 444.725 638.531Z" fill="white"/>
<path d="M586.399 641.109V642H580.815V641.221L583.61 638.109C583.954 637.727 584.219 637.402 584.407 637.137C584.598 636.867 584.731 636.627 584.805 636.416C584.883 636.201 584.922 635.982 584.922 635.76C584.922 635.479 584.864 635.225 584.747 634.998C584.633 634.768 584.465 634.584 584.243 634.447C584.02 634.311 583.75 634.242 583.434 634.242C583.055 634.242 582.739 634.316 582.485 634.465C582.235 634.609 582.047 634.812 581.922 635.074C581.797 635.336 581.735 635.637 581.735 635.977H580.651C580.651 635.496 580.756 635.057 580.967 634.658C581.178 634.26 581.491 633.943 581.905 633.709C582.319 633.471 582.829 633.352 583.434 633.352C583.973 633.352 584.434 633.447 584.817 633.639C585.2 633.826 585.493 634.092 585.696 634.436C585.903 634.775 586.006 635.174 586.006 635.631C586.006 635.881 585.963 636.135 585.877 636.393C585.795 636.646 585.68 636.9 585.532 637.154C585.387 637.408 585.217 637.658 585.022 637.904C584.831 638.15 584.625 638.393 584.407 638.631L582.122 641.109H586.399ZM592.915 637.055V638.355C592.915 639.055 592.852 639.645 592.727 640.125C592.602 640.605 592.422 640.992 592.188 641.285C591.954 641.578 591.67 641.791 591.338 641.924C591.01 642.053 590.639 642.117 590.225 642.117C589.897 642.117 589.594 642.076 589.317 641.994C589.04 641.912 588.79 641.781 588.567 641.602C588.348 641.418 588.161 641.18 588.004 640.887C587.848 640.594 587.729 640.238 587.647 639.82C587.565 639.402 587.524 638.914 587.524 638.355V637.055C587.524 636.355 587.586 635.77 587.711 635.297C587.84 634.824 588.022 634.445 588.256 634.16C588.491 633.871 588.772 633.664 589.1 633.539C589.432 633.414 589.803 633.352 590.213 633.352C590.545 633.352 590.85 633.393 591.127 633.475C591.409 633.553 591.659 633.68 591.877 633.855C592.096 634.027 592.282 634.258 592.434 634.547C592.59 634.832 592.709 635.182 592.792 635.596C592.874 636.01 592.915 636.496 592.915 637.055ZM591.825 638.531V636.873C591.825 636.49 591.801 636.154 591.754 635.865C591.711 635.572 591.647 635.322 591.561 635.115C591.475 634.908 591.366 634.74 591.233 634.611C591.104 634.482 590.954 634.389 590.782 634.33C590.614 634.268 590.424 634.236 590.213 634.236C589.956 634.236 589.727 634.285 589.528 634.383C589.329 634.477 589.161 634.627 589.024 634.834C588.891 635.041 588.79 635.312 588.719 635.648C588.649 635.984 588.614 636.393 588.614 636.873V638.531C588.614 638.914 588.635 639.252 588.678 639.545C588.725 639.838 588.793 640.092 588.883 640.307C588.973 640.518 589.083 640.691 589.211 640.828C589.34 640.965 589.489 641.066 589.657 641.133C589.829 641.195 590.018 641.227 590.225 641.227C590.491 641.227 590.723 641.176 590.922 641.074C591.122 640.973 591.288 640.814 591.42 640.6C591.557 640.381 591.659 640.102 591.725 639.762C591.792 639.418 591.825 639.008 591.825 638.531ZM599.899 641.109V642H594.315V641.221L597.11 638.109C597.454 637.727 597.719 637.402 597.907 637.137C598.098 636.867 598.231 636.627 598.305 636.416C598.383 636.201 598.422 635.982 598.422 635.76C598.422 635.479 598.364 635.225 598.247 634.998C598.133 634.768 597.965 634.584 597.743 634.447C597.52 634.311 597.25 634.242 596.934 634.242C596.555 634.242 596.239 634.316 595.985 634.465C595.735 634.609 595.547 634.812 595.422 635.074C595.297 635.336 595.235 635.637 595.235 635.977H594.151C594.151 635.496 594.256 635.057 594.467 634.658C594.678 634.26 594.991 633.943 595.405 633.709C595.819 633.471 596.329 633.352 596.934 633.352C597.473 633.352 597.934 633.447 598.317 633.639C598.7 633.826 598.993 634.092 599.196 634.436C599.403 634.775 599.506 635.174 599.506 635.631C599.506 635.881 599.463 636.135 599.377 636.393C599.295 636.646 599.18 636.9 599.032 637.154C598.887 637.408 598.717 637.658 598.522 637.904C598.331 638.15 598.125 638.393 597.907 638.631L595.622 641.109H599.899ZM604.622 633.422V642H603.538V634.775L601.352 635.572V634.594L604.452 633.422H604.622Z" fill="white"/>
<path d="M746.999 641.109V642H741.415V641.221L744.21 638.109C744.554 637.727 744.819 637.402 745.007 637.137C745.198 636.867 745.331 636.627 745.405 636.416C745.483 636.201 745.522 635.982 745.522 635.76C745.522 635.479 745.464 635.225 745.347 634.998C745.233 634.768 745.065 634.584 744.843 634.447C744.62 634.311 744.351 634.242 744.034 634.242C743.655 634.242 743.339 634.316 743.085 634.465C742.835 634.609 742.647 634.812 742.522 635.074C742.397 635.336 742.335 635.637 742.335 635.977H741.251C741.251 635.496 741.356 635.057 741.567 634.658C741.778 634.26 742.091 633.943 742.505 633.709C742.919 633.471 743.429 633.352 744.034 633.352C744.573 633.352 745.034 633.447 745.417 633.639C745.8 633.826 746.093 634.092 746.296 634.436C746.503 634.775 746.606 635.174 746.606 635.631C746.606 635.881 746.563 636.135 746.478 636.393C746.396 636.646 746.28 636.9 746.132 637.154C745.987 637.408 745.817 637.658 745.622 637.904C745.431 638.15 745.226 638.393 745.007 638.631L742.722 641.109H746.999ZM753.515 637.055V638.355C753.515 639.055 753.452 639.645 753.327 640.125C753.202 640.605 753.022 640.992 752.788 641.285C752.554 641.578 752.271 641.791 751.938 641.924C751.61 642.053 751.239 642.117 750.825 642.117C750.497 642.117 750.194 642.076 749.917 641.994C749.64 641.912 749.39 641.781 749.167 641.602C748.948 641.418 748.761 641.18 748.604 640.887C748.448 640.594 748.329 640.238 748.247 639.82C748.165 639.402 748.124 638.914 748.124 638.355V637.055C748.124 636.355 748.187 635.77 748.312 635.297C748.44 634.824 748.622 634.445 748.856 634.16C749.091 633.871 749.372 633.664 749.7 633.539C750.032 633.414 750.403 633.352 750.813 633.352C751.146 633.352 751.45 633.393 751.728 633.475C752.009 633.553 752.259 633.68 752.478 633.855C752.696 634.027 752.882 634.258 753.034 634.547C753.19 634.832 753.31 635.182 753.392 635.596C753.474 636.01 753.515 636.496 753.515 637.055ZM752.425 638.531V636.873C752.425 636.49 752.401 636.154 752.354 635.865C752.312 635.572 752.247 635.322 752.161 635.115C752.075 634.908 751.966 634.74 751.833 634.611C751.704 634.482 751.554 634.389 751.382 634.33C751.214 634.268 751.024 634.236 750.813 634.236C750.556 634.236 750.327 634.285 750.128 634.383C749.929 634.477 749.761 634.627 749.624 634.834C749.491 635.041 749.39 635.312 749.319 635.648C749.249 635.984 749.214 636.393 749.214 636.873V638.531C749.214 638.914 749.235 639.252 749.278 639.545C749.325 639.838 749.394 640.092 749.483 640.307C749.573 640.518 749.683 640.691 749.812 640.828C749.94 640.965 750.089 641.066 750.257 641.133C750.429 641.195 750.618 641.227 750.825 641.227C751.091 641.227 751.323 641.176 751.522 641.074C751.722 640.973 751.888 640.814 752.021 640.6C752.157 640.381 752.259 640.102 752.325 639.762C752.392 639.418 752.425 639.008 752.425 638.531ZM760.499 641.109V642H754.915V641.221L757.71 638.109C758.054 637.727 758.319 637.402 758.507 637.137C758.698 636.867 758.831 636.627 758.905 636.416C758.983 636.201 759.022 635.982 759.022 635.76C759.022 635.479 758.964 635.225 758.847 634.998C758.733 634.768 758.565 634.584 758.343 634.447C758.12 634.311 757.851 634.242 757.534 634.242C757.155 634.242 756.839 634.316 756.585 634.465C756.335 634.609 756.147 634.812 756.022 635.074C755.897 635.336 755.835 635.637 755.835 635.977H754.751C754.751 635.496 754.856 635.057 755.067 634.658C755.278 634.26 755.591 633.943 756.005 633.709C756.419 633.471 756.929 633.352 757.534 633.352C758.073 633.352 758.534 633.447 758.917 633.639C759.3 633.826 759.593 634.092 759.796 634.436C760.003 634.775 760.106 635.174 760.106 635.631C760.106 635.881 760.063 636.135 759.978 636.393C759.896 636.646 759.78 636.9 759.632 637.154C759.487 637.408 759.317 637.658 759.122 637.904C758.931 638.15 758.726 638.393 758.507 638.631L756.222 641.109H760.499ZM767.249 641.109V642H761.665V641.221L764.46 638.109C764.804 637.727 765.069 637.402 765.257 637.137C765.448 636.867 765.581 636.627 765.655 636.416C765.733 636.201 765.772 635.982 765.772 635.76C765.772 635.479 765.714 635.225 765.597 634.998C765.483 634.768 765.315 634.584 765.093 634.447C764.87 634.311 764.601 634.242 764.284 634.242C763.905 634.242 763.589 634.316 763.335 634.465C763.085 634.609 762.897 634.812 762.772 635.074C762.647 635.336 762.585 635.637 762.585 635.977H761.501C761.501 635.496 761.606 635.057 761.817 634.658C762.028 634.26 762.341 633.943 762.755 633.709C763.169 633.471 763.679 633.352 764.284 633.352C764.823 633.352 765.284 633.447 765.667 633.639C766.05 633.826 766.343 634.092 766.546 634.436C766.753 634.775 766.856 635.174 766.856 635.631C766.856 635.881 766.813 636.135 766.728 636.393C766.646 636.646 766.53 636.9 766.382 637.154C766.237 637.408 766.067 637.658 765.872 637.904C765.681 638.15 765.476 638.393 765.257 638.631L762.972 641.109H767.249Z" fill="white"/>
<path d="M81 401.8H141V625H81V401.8Z" fill="#4CAFF4"/>
<path d="M241 346H301V625H241V346Z" fill="#7256F5"/>
<path d="M402 178.6H462V625H402V178.6Z" fill="#8E30FF"/>
<path d="M563 122.8H623V625H563V122.8Z" fill="#B0A1E9"/>
<path d="M723 94.9H783V625H723V94.9Z" fill="#D93869"/>
<path d="M110.725 390.929V391.82H104.561V391.181L108.381 385.269H109.266L108.316 386.98L105.791 390.929H110.725ZM109.535 385.269V393.8H108.451V385.269H109.535ZM117.064 388.855V390.155C117.064 390.855 117.002 391.445 116.877 391.925C116.752 392.405 116.572 392.792 116.338 393.085C116.104 393.378 115.82 393.591 115.488 393.724C115.16 393.853 114.789 393.917 114.375 393.917C114.047 393.917 113.744 393.876 113.467 393.794C113.189 393.712 112.939 393.581 112.717 393.402C112.498 393.218 112.311 392.98 112.154 392.687C111.998 392.394 111.879 392.038 111.797 391.62C111.715 391.202 111.674 390.714 111.674 390.155V388.855C111.674 388.155 111.736 387.57 111.861 387.097C111.99 386.624 112.172 386.245 112.406 385.96C112.641 385.671 112.922 385.464 113.25 385.339C113.582 385.214 113.953 385.152 114.363 385.152C114.695 385.152 115 385.193 115.277 385.275C115.559 385.353 115.809 385.48 116.027 385.655C116.246 385.827 116.432 386.058 116.584 386.347C116.74 386.632 116.859 386.982 116.941 387.396C117.023 387.81 117.064 388.296 117.064 388.855ZM115.975 390.331V388.673C115.975 388.29 115.951 387.954 115.904 387.665C115.861 387.372 115.797 387.122 115.711 386.915C115.625 386.708 115.516 386.54 115.383 386.411C115.254 386.282 115.104 386.189 114.932 386.13C114.764 386.068 114.574 386.036 114.363 386.036C114.105 386.036 113.877 386.085 113.678 386.183C113.479 386.277 113.311 386.427 113.174 386.634C113.041 386.841 112.939 387.112 112.869 387.448C112.799 387.784 112.764 388.193 112.764 388.673V390.331C112.764 390.714 112.785 391.052 112.828 391.345C112.875 391.638 112.943 391.892 113.033 392.107C113.123 392.318 113.232 392.491 113.361 392.628C113.49 392.765 113.639 392.866 113.807 392.933C113.979 392.995 114.168 393.027 114.375 393.027C114.641 393.027 114.873 392.976 115.072 392.874C115.271 392.773 115.438 392.614 115.57 392.4C115.707 392.181 115.809 391.902 115.875 391.562C115.941 391.218 115.975 390.808 115.975 390.331Z" fill="white"/>
<path d="M265.83 333.939L264.963 333.717L265.391 329.469H269.768V330.471H266.311L266.053 332.791C266.209 332.701 266.406 332.617 266.645 332.539C266.887 332.461 267.164 332.422 267.477 332.422C267.871 332.422 268.225 332.49 268.537 332.627C268.85 332.76 269.115 332.951 269.334 333.201C269.557 333.451 269.727 333.752 269.844 334.104C269.961 334.455 270.02 334.848 270.02 335.281C270.02 335.691 269.963 336.068 269.85 336.412C269.74 336.756 269.574 337.057 269.352 337.314C269.129 337.568 268.848 337.766 268.508 337.906C268.172 338.047 267.775 338.117 267.318 338.117C266.975 338.117 266.648 338.07 266.34 337.977C266.035 337.879 265.762 337.732 265.52 337.537C265.281 337.338 265.086 337.092 264.934 336.799C264.785 336.502 264.691 336.154 264.652 335.756H265.684C265.73 336.076 265.824 336.346 265.965 336.564C266.105 336.783 266.289 336.949 266.516 337.062C266.746 337.172 267.014 337.227 267.318 337.227C267.576 337.227 267.805 337.182 268.004 337.092C268.203 337.002 268.371 336.873 268.508 336.705C268.645 336.537 268.748 336.334 268.818 336.096C268.893 335.857 268.93 335.59 268.93 335.293C268.93 335.023 268.893 334.773 268.818 334.543C268.744 334.312 268.633 334.111 268.484 333.939C268.34 333.768 268.162 333.635 267.951 333.541C267.74 333.443 267.498 333.395 267.225 333.395C266.861 333.395 266.586 333.443 266.398 333.541C266.215 333.639 266.025 333.771 265.83 333.939ZM276.564 333.055V334.355C276.564 335.055 276.502 335.645 276.377 336.125C276.252 336.605 276.072 336.992 275.838 337.285C275.604 337.578 275.32 337.791 274.988 337.924C274.66 338.053 274.289 338.117 273.875 338.117C273.547 338.117 273.244 338.076 272.967 337.994C272.689 337.912 272.439 337.781 272.217 337.602C271.998 337.418 271.811 337.18 271.654 336.887C271.498 336.594 271.379 336.238 271.297 335.82C271.215 335.402 271.174 334.914 271.174 334.355V333.055C271.174 332.355 271.236 331.77 271.361 331.297C271.49 330.824 271.672 330.445 271.906 330.16C272.141 329.871 272.422 329.664 272.75 329.539C273.082 329.414 273.453 329.352 273.863 329.352C274.195 329.352 274.5 329.393 274.777 329.475C275.059 329.553 275.309 329.68 275.527 329.855C275.746 330.027 275.932 330.258 276.084 330.547C276.24 330.832 276.359 331.182 276.441 331.596C276.523 332.01 276.564 332.496 276.564 333.055ZM275.475 334.531V332.873C275.475 332.49 275.451 332.154 275.404 331.865C275.361 331.572 275.297 331.322 275.211 331.115C275.125 330.908 275.016 330.74 274.883 330.611C274.754 330.482 274.604 330.389 274.432 330.33C274.264 330.268 274.074 330.236 273.863 330.236C273.605 330.236 273.377 330.285 273.178 330.383C272.979 330.477 272.811 330.627 272.674 330.834C272.541 331.041 272.439 331.312 272.369 331.648C272.299 331.984 272.264 332.393 272.264 332.873V334.531C272.264 334.914 272.285 335.252 272.328 335.545C272.375 335.838 272.443 336.092 272.533 336.307C272.623 336.518 272.732 336.691 272.861 336.828C272.99 336.965 273.139 337.066 273.307 337.133C273.479 337.195 273.668 337.227 273.875 337.227C274.141 337.227 274.373 337.176 274.572 337.074C274.771 336.973 274.938 336.814 275.07 336.6C275.207 336.381 275.309 336.102 275.375 335.762C275.441 335.418 275.475 335.008 275.475 334.531Z" fill="white"/>
<path d="M430.838 168.291C430.838 168.811 430.717 169.252 430.475 169.616C430.236 169.975 429.912 170.248 429.502 170.436C429.096 170.623 428.637 170.717 428.125 170.717C427.613 170.717 427.152 170.623 426.742 170.436C426.332 170.248 426.008 169.975 425.77 169.616C425.531 169.252 425.412 168.811 425.412 168.291C425.412 167.952 425.477 167.641 425.605 167.36C425.738 167.075 425.924 166.827 426.162 166.616C426.404 166.405 426.689 166.243 427.018 166.129C427.35 166.012 427.715 165.954 428.113 165.954C428.637 165.954 429.104 166.055 429.514 166.258C429.924 166.457 430.246 166.733 430.48 167.084C430.719 167.436 430.838 167.838 430.838 168.291ZM429.748 168.268C429.748 167.952 429.68 167.672 429.543 167.43C429.406 167.184 429.215 166.993 428.969 166.856C428.723 166.719 428.438 166.651 428.113 166.651C427.781 166.651 427.494 166.719 427.252 166.856C427.014 166.993 426.828 167.184 426.695 167.43C426.562 167.672 426.496 167.952 426.496 168.268C426.496 168.596 426.561 168.877 426.689 169.112C426.822 169.342 427.01 169.52 427.252 169.645C427.498 169.766 427.789 169.827 428.125 169.827C428.461 169.827 428.75 169.766 428.992 169.645C429.234 169.52 429.42 169.342 429.549 169.112C429.682 168.877 429.748 168.596 429.748 168.268ZM430.639 164.289C430.639 164.704 430.529 165.077 430.311 165.409C430.092 165.741 429.793 166.002 429.414 166.194C429.035 166.385 428.605 166.481 428.125 166.481C427.637 166.481 427.201 166.385 426.818 166.194C426.439 166.002 426.143 165.741 425.928 165.409C425.713 165.077 425.605 164.704 425.605 164.289C425.605 163.793 425.713 163.371 425.928 163.024C426.146 162.676 426.445 162.411 426.824 162.227C427.203 162.043 427.635 161.952 428.119 161.952C428.607 161.952 429.041 162.043 429.42 162.227C429.799 162.411 430.096 162.676 430.311 163.024C430.529 163.371 430.639 163.793 430.639 164.289ZM429.555 164.307C429.555 164.022 429.494 163.77 429.373 163.551C429.252 163.332 429.084 163.161 428.869 163.036C428.654 162.907 428.404 162.842 428.119 162.842C427.834 162.842 427.584 162.903 427.369 163.024C427.158 163.141 426.992 163.309 426.871 163.528C426.754 163.746 426.695 164.006 426.695 164.307C426.695 164.6 426.754 164.856 426.871 165.075C426.992 165.293 427.16 165.463 427.375 165.584C427.59 165.705 427.84 165.766 428.125 165.766C428.41 165.766 428.658 165.705 428.869 165.584C429.084 165.463 429.252 165.293 429.373 165.075C429.494 164.856 429.555 164.6 429.555 164.307ZM437.564 165.655V166.955C437.564 167.655 437.502 168.245 437.377 168.725C437.252 169.205 437.072 169.592 436.838 169.885C436.604 170.178 436.32 170.391 435.988 170.524C435.66 170.653 435.289 170.717 434.875 170.717C434.547 170.717 434.244 170.676 433.967 170.594C433.689 170.512 433.439 170.381 433.217 170.202C432.998 170.018 432.811 169.78 432.654 169.487C432.498 169.194 432.379 168.838 432.297 168.42C432.215 168.002 432.174 167.514 432.174 166.955V165.655C432.174 164.955 432.236 164.37 432.361 163.897C432.49 163.424 432.672 163.045 432.906 162.76C433.141 162.471 433.422 162.264 433.75 162.139C434.082 162.014 434.453 161.952 434.863 161.952C435.195 161.952 435.5 161.993 435.777 162.075C436.059 162.153 436.309 162.28 436.527 162.455C436.746 162.627 436.932 162.858 437.084 163.147C437.24 163.432 437.359 163.782 437.441 164.196C437.523 164.61 437.564 165.096 437.564 165.655ZM436.475 167.131V165.473C436.475 165.09 436.451 164.754 436.404 164.465C436.361 164.172 436.297 163.922 436.211 163.715C436.125 163.508 436.016 163.34 435.883 163.211C435.754 163.082 435.604 162.989 435.432 162.93C435.264 162.868 435.074 162.836 434.863 162.836C434.605 162.836 434.377 162.885 434.178 162.983C433.979 163.077 433.811 163.227 433.674 163.434C433.541 163.641 433.439 163.913 433.369 164.248C433.299 164.584 433.264 164.993 433.264 165.473V167.131C433.264 167.514 433.285 167.852 433.328 168.145C433.375 168.438 433.443 168.692 433.533 168.907C433.623 169.118 433.732 169.291 433.861 169.428C433.99 169.565 434.139 169.666 434.307 169.733C434.479 169.795 434.668 169.827 434.875 169.827C435.141 169.827 435.373 169.776 435.572 169.674C435.771 169.573 435.938 169.414 436.07 169.2C436.207 168.981 436.309 168.702 436.375 168.362C436.441 168.018 436.475 167.608 436.475 167.131Z" fill="white"/>
<path d="M587.537 113.892H587.648C588.273 113.892 588.781 113.804 589.172 113.628C589.562 113.452 589.863 113.216 590.074 112.919C590.285 112.622 590.43 112.288 590.508 111.917C590.586 111.542 590.625 111.157 590.625 110.763V109.456C590.625 109.07 590.58 108.726 590.49 108.425C590.404 108.124 590.283 107.872 590.127 107.669C589.975 107.466 589.801 107.312 589.605 107.206C589.41 107.101 589.203 107.048 588.984 107.048C588.734 107.048 588.51 107.099 588.311 107.2C588.115 107.298 587.949 107.437 587.812 107.616C587.68 107.796 587.578 108.007 587.508 108.249C587.438 108.491 587.402 108.755 587.402 109.04C587.402 109.294 587.434 109.54 587.496 109.779C587.559 110.017 587.654 110.232 587.783 110.423C587.912 110.614 588.072 110.767 588.264 110.88C588.459 110.989 588.688 111.044 588.949 111.044C589.191 111.044 589.418 110.997 589.629 110.904C589.844 110.806 590.033 110.675 590.197 110.511C590.365 110.343 590.498 110.154 590.596 109.943C590.697 109.732 590.756 109.511 590.771 109.28H591.287C591.287 109.605 591.223 109.925 591.094 110.241C590.969 110.554 590.793 110.839 590.566 111.097C590.34 111.355 590.074 111.562 589.77 111.718C589.465 111.87 589.133 111.946 588.773 111.946C588.352 111.946 587.986 111.864 587.678 111.7C587.369 111.536 587.115 111.318 586.916 111.044C586.721 110.771 586.574 110.466 586.477 110.13C586.383 109.79 586.336 109.446 586.336 109.099C586.336 108.693 586.393 108.312 586.506 107.956C586.619 107.601 586.787 107.288 587.01 107.019C587.232 106.745 587.508 106.532 587.836 106.38C588.168 106.228 588.551 106.152 588.984 106.152C589.473 106.152 589.889 106.249 590.232 106.445C590.576 106.64 590.855 106.902 591.07 107.23C591.289 107.558 591.449 107.927 591.551 108.337C591.652 108.747 591.703 109.169 591.703 109.603V109.995C591.703 110.437 591.674 110.886 591.615 111.343C591.561 111.796 591.453 112.23 591.293 112.644C591.137 113.058 590.908 113.429 590.607 113.757C590.307 114.081 589.914 114.339 589.43 114.53C588.949 114.718 588.355 114.812 587.648 114.812H587.537V113.892ZM598.564 109.855V111.155C598.564 111.855 598.502 112.445 598.377 112.925C598.252 113.405 598.072 113.792 597.838 114.085C597.604 114.378 597.32 114.591 596.988 114.724C596.66 114.853 596.289 114.917 595.875 114.917C595.547 114.917 595.244 114.876 594.967 114.794C594.689 114.712 594.439 114.581 594.217 114.402C593.998 114.218 593.811 113.98 593.654 113.687C593.498 113.394 593.379 113.038 593.297 112.62C593.215 112.202 593.174 111.714 593.174 111.155V109.855C593.174 109.155 593.236 108.57 593.361 108.097C593.49 107.624 593.672 107.245 593.906 106.96C594.141 106.671 594.422 106.464 594.75 106.339C595.082 106.214 595.453 106.152 595.863 106.152C596.195 106.152 596.5 106.193 596.777 106.275C597.059 106.353 597.309 106.48 597.527 106.655C597.746 106.827 597.932 107.058 598.084 107.347C598.24 107.632 598.359 107.982 598.441 108.396C598.523 108.81 598.564 109.296 598.564 109.855ZM597.475 111.331V109.673C597.475 109.29 597.451 108.954 597.404 108.665C597.361 108.372 597.297 108.122 597.211 107.915C597.125 107.708 597.016 107.54 596.883 107.411C596.754 107.282 596.604 107.189 596.432 107.13C596.264 107.068 596.074 107.036 595.863 107.036C595.605 107.036 595.377 107.085 595.178 107.183C594.979 107.277 594.811 107.427 594.674 107.634C594.541 107.841 594.439 108.113 594.369 108.448C594.299 108.784 594.264 109.193 594.264 109.673V111.331C594.264 111.714 594.285 112.052 594.328 112.345C594.375 112.638 594.443 112.892 594.533 113.107C594.623 113.318 594.732 113.491 594.861 113.628C594.99 113.765 595.139 113.866 595.307 113.933C595.479 113.995 595.668 114.027 595.875 114.027C596.141 114.027 596.373 113.976 596.572 113.874C596.771 113.773 596.938 113.614 597.07 113.4C597.207 113.181 597.309 112.902 597.375 112.562C597.441 112.218 597.475 111.808 597.475 111.331Z" fill="white"/>
<path d="M747.537 85.9918H747.648C748.273 85.9918 748.781 85.9039 749.172 85.7281C749.562 85.5523 749.863 85.316 750.074 85.0191C750.285 84.7223 750.43 84.3883 750.508 84.0172C750.586 83.6422 750.625 83.2574 750.625 82.8629V81.5563C750.625 81.1695 750.58 80.8258 750.49 80.525C750.404 80.2242 750.283 79.9723 750.127 79.7691C749.975 79.566 749.801 79.4117 749.605 79.3063C749.41 79.2008 749.203 79.148 748.984 79.148C748.734 79.148 748.51 79.1988 748.311 79.3004C748.115 79.398 747.949 79.5367 747.812 79.7164C747.68 79.8961 747.578 80.107 747.508 80.3492C747.438 80.5914 747.402 80.8551 747.402 81.1402C747.402 81.3941 747.434 81.6402 747.496 81.8785C747.559 82.1168 747.654 82.3316 747.783 82.523C747.912 82.7145 748.072 82.8668 748.264 82.9801C748.459 83.0895 748.688 83.1441 748.949 83.1441C749.191 83.1441 749.418 83.0973 749.629 83.0035C749.844 82.9059 750.033 82.775 750.197 82.6109C750.365 82.443 750.498 82.2535 750.596 82.0426C750.697 81.8316 750.756 81.6109 750.771 81.3805H751.287C751.287 81.7047 751.223 82.025 751.094 82.3414C750.969 82.6539 750.793 82.9391 750.566 83.1969C750.34 83.4547 750.074 83.6617 749.77 83.818C749.465 83.9703 749.133 84.0465 748.773 84.0465C748.352 84.0465 747.986 83.9645 747.678 83.8004C747.369 83.6363 747.115 83.4176 746.916 83.1441C746.721 82.8707 746.574 82.566 746.477 82.2301C746.383 81.8902 746.336 81.5465 746.336 81.1988C746.336 80.7926 746.393 80.4117 746.506 80.0563C746.619 79.7008 746.787 79.3883 747.01 79.1188C747.232 78.8453 747.508 78.6324 747.836 78.4801C748.168 78.3277 748.551 78.2516 748.984 78.2516C749.473 78.2516 749.889 78.3492 750.232 78.5445C750.576 78.7398 750.855 79.0016 751.07 79.3297C751.289 79.6578 751.449 80.027 751.551 80.4371C751.652 80.8473 751.703 81.2691 751.703 81.7027V82.0953C751.703 82.5367 751.674 82.9859 751.615 83.443C751.561 83.8961 751.453 84.3297 751.293 84.7438C751.137 85.1578 750.908 85.5289 750.607 85.857C750.307 86.1813 749.914 86.4391 749.43 86.6305C748.949 86.818 748.355 86.9117 747.648 86.9117H747.537V85.9918ZM754.58 82.8395L753.713 82.6168L754.141 78.3688H758.518V79.3707H755.061L754.803 81.691C754.959 81.6012 755.156 81.5172 755.395 81.4391C755.637 81.3609 755.914 81.3219 756.227 81.3219C756.621 81.3219 756.975 81.3902 757.287 81.527C757.6 81.6598 757.865 81.8512 758.084 82.1012C758.307 82.3512 758.477 82.652 758.594 83.0035C758.711 83.3551 758.77 83.7477 758.77 84.1813C758.77 84.5914 758.713 84.9684 758.6 85.3121C758.49 85.6559 758.324 85.9566 758.102 86.2145C757.879 86.4684 757.598 86.6656 757.258 86.8063C756.922 86.9469 756.525 87.0172 756.068 87.0172C755.725 87.0172 755.398 86.9703 755.09 86.8766C754.785 86.7789 754.512 86.6324 754.27 86.4371C754.031 86.2379 753.836 85.9918 753.684 85.6988C753.535 85.402 753.441 85.0543 753.402 84.6559H754.434C754.48 84.9762 754.574 85.2457 754.715 85.4645C754.855 85.6832 755.039 85.8492 755.266 85.9625C755.496 86.0719 755.764 86.1266 756.068 86.1266C756.326 86.1266 756.555 86.0816 756.754 85.9918C756.953 85.902 757.121 85.773 757.258 85.6051C757.395 85.4371 757.498 85.234 757.568 84.9957C757.643 84.7574 757.68 84.4898 757.68 84.193C757.68 83.9234 757.643 83.6734 757.568 83.443C757.494 83.2125 757.383 83.0113 757.234 82.8395C757.09 82.6676 756.912 82.5348 756.701 82.441C756.49 82.3434 756.248 82.2945 755.975 82.2945C755.611 82.2945 755.336 82.3434 755.148 82.441C754.965 82.5387 754.775 82.6715 754.58 82.8395Z" fill="white"/>
<path d="M65.8502 25L73.9279 6.877H78.0703L86.1738 25H81.7725L75.1447 8.99998H76.8017L70.1479 25H65.8502ZM69.889 21.1165L71.0023 17.932H80.3227L81.4619 21.1165H69.889ZM105.608 10.8641C106.712 10.8641 107.687 11.0884 108.533 11.5372C109.396 11.9687 110.069 12.6418 110.553 13.5566C111.053 14.4541 111.303 15.6106 111.303 17.0259V25H107.264V17.6472C107.264 16.5253 107.031 15.6969 106.565 15.1618C106.099 14.6267 105.444 14.3592 104.598 14.3592C104.011 14.3592 103.485 14.4973 103.019 14.7734C102.552 15.0323 102.19 15.4293 101.931 15.9644C101.672 16.4994 101.543 17.1812 101.543 18.0097V25H97.5039V17.6472C97.5039 16.5253 97.2709 15.6969 96.8049 15.1618C96.3562 14.6267 95.7089 14.3592 94.8632 14.3592C94.2763 14.3592 93.7499 14.4973 93.2839 14.7734C92.8179 15.0323 92.4554 15.4293 92.1965 15.9644C91.9376 16.4994 91.8081 17.1812 91.8081 18.0097V25H87.7693V11.0712H91.6269V14.877L90.902 13.7637C91.3853 12.8144 92.067 12.0981 92.9473 11.6149C93.8448 11.1143 94.8632 10.8641 96.0023 10.8641C97.2796 10.8641 98.3928 11.192 99.3421 11.8479C100.309 12.4865 100.947 13.4703 101.258 14.7993L99.834 14.411C100.3 13.3236 101.042 12.4606 102.061 11.822C103.096 11.1834 104.278 10.8641 105.608 10.8641ZM121.652 25.2071C120.168 25.2071 118.848 24.8964 117.691 24.2751C116.552 23.6537 115.646 22.808 114.973 21.7379C114.317 20.6505 113.989 19.4164 113.989 18.0356C113.989 16.6375 114.317 15.4034 114.973 14.3333C115.646 13.2459 116.552 12.4002 117.691 11.7961C118.848 11.1747 120.168 10.8641 121.652 10.8641C123.12 10.8641 124.431 11.1747 125.588 11.7961C126.744 12.4002 127.65 13.2373 128.306 14.3074C128.962 15.3775 129.29 16.6203 129.29 18.0356C129.29 19.4164 128.962 20.6505 128.306 21.7379C127.65 22.808 126.744 23.6537 125.588 24.2751C124.431 24.8964 123.12 25.2071 121.652 25.2071ZM121.652 21.8932C122.326 21.8932 122.93 21.7379 123.465 21.4272C124 21.1165 124.423 20.6764 124.733 20.1068C125.044 19.5199 125.199 18.8295 125.199 18.0356C125.199 17.2244 125.044 16.534 124.733 15.9644C124.423 15.3948 124 14.9547 123.465 14.644C122.93 14.3333 122.326 14.178 121.652 14.178C120.979 14.178 120.375 14.3333 119.84 14.644C119.305 14.9547 118.874 15.3948 118.546 15.9644C118.235 16.534 118.08 17.2244 118.08 18.0356C118.08 18.8295 118.235 19.5199 118.546 20.1068C118.874 20.6764 119.305 21.1165 119.84 21.4272C120.375 21.7379 120.979 21.8932 121.652 21.8932ZM137.867 25.2071C136.71 25.2071 135.675 24.9827 134.76 24.534C133.862 24.0852 133.163 23.4034 132.663 22.4887C132.162 21.5566 131.912 20.3743 131.912 18.9417V11.0712H135.951V18.3463C135.951 19.5027 136.192 20.3571 136.676 20.9094C137.176 21.4444 137.875 21.712 138.773 21.712C139.394 21.712 139.946 21.5825 140.43 21.3236C140.913 21.0475 141.293 20.6332 141.569 20.0809C141.845 19.5113 141.983 18.8037 141.983 17.9579V11.0712H146.022V25H142.19V21.1683L142.889 22.2815C142.423 23.2481 141.733 23.9817 140.818 24.4822C139.921 24.9655 138.937 25.2071 137.867 25.2071ZM158.23 10.8641C159.334 10.8641 160.318 11.0884 161.181 11.5372C162.061 11.9687 162.752 12.6418 163.252 13.5566C163.753 14.4541 164.003 15.6106 164.003 17.0259V25H159.964V17.6472C159.964 16.5253 159.714 15.6969 159.214 15.1618C158.73 14.6267 158.04 14.3592 157.142 14.3592C156.504 14.3592 155.926 14.4973 155.408 14.7734C154.907 15.0323 154.51 15.438 154.217 15.9903C153.941 16.5426 153.803 17.2503 153.803 18.1133V25H149.764V11.0712H153.621V14.9288L152.896 13.7637C153.397 12.8317 154.113 12.1154 155.045 11.6149C155.977 11.1143 157.039 10.8641 158.23 10.8641ZM173.36 25.2071C171.72 25.2071 170.443 24.7929 169.528 23.9644C168.614 23.1187 168.156 21.8673 168.156 20.2104V7.99027H172.195V20.1586C172.195 20.7454 172.35 21.2028 172.661 21.5307C172.972 21.8414 173.395 21.9968 173.93 21.9968C174.568 21.9968 175.112 21.8242 175.561 21.479L176.648 24.3269C176.234 24.6203 175.733 24.8447 175.146 25C174.577 25.1381 173.981 25.2071 173.36 25.2071ZM166.007 14.4887V11.3819H175.664V14.4887H166.007ZM186.247 25V11.0712H190.105V15.0065L189.561 13.8673C189.976 12.8835 190.64 12.1413 191.555 11.6408C192.47 11.123 193.583 10.8641 194.895 10.8641V14.5922C194.722 14.575 194.567 14.5663 194.429 14.5663C194.291 14.5491 194.144 14.5404 193.988 14.5404C192.884 14.5404 191.986 14.8597 191.296 15.4984C190.623 16.1197 190.286 17.0949 190.286 18.4239V25H186.247ZM204.93 25V22.2815L204.671 21.6861V16.8188C204.671 15.9558 204.403 15.2826 203.868 14.7993C203.35 14.3161 202.548 14.0744 201.46 14.0744C200.718 14.0744 199.985 14.1952 199.26 14.4369C198.552 14.6613 197.948 14.9719 197.447 15.3689L195.998 12.5469C196.757 12.0118 197.672 11.5976 198.742 11.3042C199.812 11.0108 200.899 10.8641 202.004 10.8641C204.127 10.8641 205.775 11.3646 206.949 12.3657C208.123 13.3668 208.71 14.9288 208.71 17.0518V25H204.93ZM200.684 25.2071C199.596 25.2071 198.664 25.0259 197.888 24.6634C197.111 24.2837 196.515 23.7745 196.101 23.1359C195.687 22.4973 195.48 21.781 195.48 20.9871C195.48 20.1586 195.678 19.4336 196.075 18.8123C196.49 18.1909 197.137 17.7076 198.017 17.3624C198.897 17 200.045 16.8188 201.46 16.8188H205.163V19.1747H201.901C200.951 19.1747 200.295 19.3301 199.933 19.6408C199.588 19.9514 199.415 20.3398 199.415 20.8058C199.415 21.3236 199.614 21.7379 200.011 22.0485C200.425 22.342 200.986 22.4887 201.693 22.4887C202.367 22.4887 202.971 22.3333 203.506 22.0227C204.041 21.6947 204.429 21.2201 204.671 20.5987L205.292 22.4628C204.999 23.3603 204.464 24.0421 203.687 24.5081C202.91 24.9741 201.909 25.2071 200.684 25.2071ZM212.365 25V11.0712H216.404V25H212.365ZM214.384 9.12943C213.642 9.12943 213.038 8.91368 212.572 8.48218C212.106 8.05068 211.873 7.51562 211.873 6.877C211.873 6.23838 212.106 5.70332 212.572 5.27182C213.038 4.84032 213.642 4.62457 214.384 4.62457C215.127 4.62457 215.731 4.83169 216.197 5.24593C216.663 5.64291 216.896 6.16071 216.896 6.79933C216.896 7.47247 216.663 8.03342 216.197 8.48218C215.748 8.91368 215.144 9.12943 214.384 9.12943ZM224.838 25.2071C223.647 25.2071 222.5 25.069 221.395 24.7929C220.307 24.4995 219.444 24.137 218.806 23.7055L220.152 20.8058C220.791 21.2028 221.542 21.5307 222.405 21.7896C223.285 22.0313 224.148 22.1521 224.994 22.1521C225.926 22.1521 226.582 22.0399 226.961 21.8155C227.358 21.5911 227.557 21.2805 227.557 20.8835C227.557 20.5555 227.401 20.3139 227.091 20.1586C226.797 19.986 226.4 19.8565 225.9 19.7702C225.399 19.6839 224.847 19.5976 224.243 19.5113C223.656 19.425 223.06 19.3128 222.456 19.1747C221.852 19.0194 221.3 18.795 220.799 18.5016C220.299 18.2082 219.893 17.8112 219.583 17.3107C219.289 16.8101 219.142 16.1629 219.142 15.3689C219.142 14.4887 219.393 13.712 219.893 13.0388C220.411 12.3657 221.153 11.8392 222.12 11.4595C223.086 11.0626 224.243 10.8641 225.589 10.8641C226.538 10.8641 227.505 10.9676 228.489 11.1747C229.473 11.3819 230.292 11.6839 230.948 12.0809L229.602 14.9547C228.929 14.5577 228.247 14.2902 227.557 14.1521C226.884 13.9967 226.228 13.9191 225.589 13.9191C224.692 13.9191 224.036 14.0399 223.621 14.2815C223.207 14.5232 223 14.8339 223 15.2136C223 15.5588 223.147 15.8177 223.44 15.9903C223.751 16.1629 224.156 16.301 224.657 16.4045C225.158 16.5081 225.701 16.603 226.288 16.6893C226.892 16.7584 227.496 16.8705 228.1 17.0259C228.704 17.1812 229.248 17.4056 229.731 17.699C230.232 17.9752 230.638 18.3635 230.948 18.8641C231.259 19.3473 231.414 19.986 231.414 20.7799C231.414 21.6429 231.155 22.411 230.638 23.0841C230.12 23.74 229.369 24.2578 228.385 24.6375C227.419 25.0173 226.236 25.2071 224.838 25.2071ZM240.819 25.2071C239.231 25.2071 237.833 24.8964 236.625 24.2751C235.434 23.6537 234.51 22.808 233.854 21.7379C233.199 20.6505 232.871 19.4164 232.871 18.0356C232.871 16.6375 233.19 15.4034 233.829 14.3333C234.484 13.2459 235.373 12.4002 236.495 11.7961C237.617 11.1747 238.886 10.8641 240.301 10.8641C241.665 10.8641 242.89 11.1575 243.977 11.7443C245.082 12.3139 245.954 13.1424 246.592 14.2298C247.231 15.2999 247.55 16.5857 247.55 18.0874C247.55 18.2427 247.542 18.4239 247.524 18.6311C247.507 18.8209 247.49 19.0021 247.473 19.1747H236.159V16.8188H245.35L243.796 17.5178C243.796 16.7929 243.649 16.1629 243.356 15.6278C243.063 15.0928 242.657 14.6785 242.139 14.3851C241.621 14.0744 241.017 13.9191 240.327 13.9191C239.637 13.9191 239.024 14.0744 238.489 14.3851C237.971 14.6785 237.565 15.1014 237.272 15.6537C236.978 16.1888 236.832 16.8274 236.832 17.5696V18.1909C236.832 18.9504 236.996 19.6235 237.324 20.2104C237.669 20.7799 238.144 21.2201 238.748 21.5307C239.369 21.8242 240.094 21.9709 240.922 21.9709C241.665 21.9709 242.312 21.8587 242.864 21.6343C243.434 21.4099 243.952 21.0733 244.418 20.6246L246.566 22.9547C245.928 23.6796 245.125 24.2406 244.159 24.6375C243.192 25.0173 242.079 25.2071 240.819 25.2071ZM256.22 25.2071C254.908 25.2071 253.726 24.9137 252.673 24.3269C251.62 23.7228 250.783 22.8856 250.161 21.8155C249.557 20.7454 249.255 19.4854 249.255 18.0356C249.255 16.5685 249.557 15.2999 250.161 14.2298C250.783 13.1596 251.62 12.3312 252.673 11.7443C253.726 11.1575 254.908 10.8641 256.22 10.8641C257.393 10.8641 258.42 11.123 259.301 11.6408C260.181 12.1586 260.863 12.9439 261.346 13.9967C261.829 15.0496 262.071 16.3959 262.071 18.0356C262.071 19.658 261.838 21.0043 261.372 22.0744C260.906 23.1273 260.233 23.9126 259.352 24.4304C258.489 24.9482 257.445 25.2071 256.22 25.2071ZM256.919 21.8932C257.575 21.8932 258.17 21.7379 258.705 21.4272C259.24 21.1165 259.663 20.6764 259.974 20.1068C260.302 19.5199 260.466 18.8295 260.466 18.0356C260.466 17.2244 260.302 16.534 259.974 15.9644C259.663 15.3948 259.24 14.9547 258.705 14.644C258.17 14.3333 257.575 14.178 256.919 14.178C256.246 14.178 255.642 14.3333 255.106 14.644C254.571 14.9547 254.14 15.3948 253.812 15.9644C253.501 16.534 253.346 17.2244 253.346 18.0356C253.346 18.8295 253.501 19.5199 253.812 20.1068C254.14 20.6764 254.571 21.1165 255.106 21.4272C255.642 21.7379 256.246 21.8932 256.919 21.8932ZM260.569 25V22.1521L260.647 18.0097L260.388 13.8932V5.78962H264.427V25H260.569ZM281.478 25.2071C280.166 25.2071 278.984 24.9137 277.931 24.3269C276.878 23.7228 276.041 22.8856 275.419 21.8155C274.815 20.7454 274.513 19.4854 274.513 18.0356C274.513 16.5685 274.815 15.2999 275.419 14.2298C276.041 13.1596 276.878 12.3312 277.931 11.7443C278.984 11.1575 280.166 10.8641 281.478 10.8641C282.651 10.8641 283.678 11.123 284.559 11.6408C285.439 12.1586 286.121 12.9439 286.604 13.9967C287.087 15.0496 287.329 16.3959 287.329 18.0356C287.329 19.658 287.096 21.0043 286.63 22.0744C286.164 23.1273 285.491 23.9126 284.61 24.4304C283.747 24.9482 282.703 25.2071 281.478 25.2071ZM282.177 21.8932C282.833 21.8932 283.428 21.7379 283.963 21.4272C284.498 21.1165 284.921 20.6764 285.232 20.1068C285.56 19.5199 285.724 18.8295 285.724 18.0356C285.724 17.2244 285.56 16.534 285.232 15.9644C284.921 15.3948 284.498 14.9547 283.963 14.644C283.428 14.3333 282.833 14.178 282.177 14.178C281.504 14.178 280.899 14.3333 280.364 14.644C279.829 14.9547 279.398 15.3948 279.07 15.9644C278.759 16.534 278.604 17.2244 278.604 18.0356C278.604 18.8295 278.759 19.5199 279.07 20.1068C279.398 20.6764 279.829 21.1165 280.364 21.4272C280.899 21.7379 281.504 21.8932 282.177 21.8932ZM285.827 25V22.1521L285.905 18.0097L285.646 13.8932V5.78962H289.685V25H285.827ZM299.3 25.2071C298.143 25.2071 297.108 24.9827 296.193 24.534C295.296 24.0852 294.597 23.4034 294.096 22.4887C293.595 21.5566 293.345 20.3743 293.345 18.9417V11.0712H297.384V18.3463C297.384 19.5027 297.626 20.3571 298.109 20.9094C298.61 21.4444 299.309 21.712 300.206 21.712C300.827 21.712 301.38 21.5825 301.863 21.3236C302.346 21.0475 302.726 20.6332 303.002 20.0809C303.278 19.5113 303.416 18.8037 303.416 17.9579V11.0712H307.455V25H303.624V21.1683L304.323 22.2815C303.857 23.2481 303.166 23.9817 302.251 24.4822C301.354 24.9655 300.37 25.2071 299.3 25.2071ZM311.197 25V11.0712H315.055V15.0065L314.511 13.8673C314.925 12.8835 315.59 12.1413 316.504 11.6408C317.419 11.123 318.532 10.8641 319.844 10.8641V14.5922C319.672 14.575 319.516 14.5663 319.378 14.5663C319.24 14.5491 319.093 14.5404 318.938 14.5404C317.833 14.5404 316.936 14.8597 316.246 15.4984C315.572 16.1197 315.236 17.0949 315.236 18.4239V25H311.197ZM322.271 25V11.0712H326.31V25H322.271ZM324.29 9.12943C323.548 9.12943 322.944 8.91368 322.478 8.48218C322.012 8.05068 321.779 7.51562 321.779 6.877C321.779 6.23838 322.012 5.70332 322.478 5.27182C322.944 4.84032 323.548 4.62457 324.29 4.62457C325.033 4.62457 325.637 4.83169 326.103 5.24593C326.569 5.64291 326.802 6.16071 326.802 6.79933C326.802 7.47247 326.569 8.03342 326.103 8.48218C325.654 8.91368 325.05 9.12943 324.29 9.12943ZM338.524 10.8641C339.629 10.8641 340.613 11.0884 341.476 11.5372C342.356 11.9687 343.046 12.6418 343.547 13.5566C344.047 14.4541 344.298 15.6106 344.298 17.0259V25H340.259V17.6472C340.259 16.5253 340.009 15.6969 339.508 15.1618C339.025 14.6267 338.334 14.3592 337.437 14.3592C336.798 14.3592 336.22 14.4973 335.702 14.7734C335.202 15.0323 334.805 15.438 334.511 15.9903C334.235 16.5426 334.097 17.2503 334.097 18.1133V25H330.058V11.0712H333.916V14.9288L333.191 13.7637C333.691 12.8317 334.408 12.1154 335.34 11.6149C336.272 11.1143 337.333 10.8641 338.524 10.8641ZM354.61 30.2298C353.298 30.2298 352.03 30.0658 350.804 29.7379C349.596 29.4272 348.586 28.9525 347.775 28.3139L349.38 25.4142C349.967 25.8975 350.709 26.2772 351.607 26.5534C352.522 26.8468 353.419 26.9935 354.299 26.9935C355.732 26.9935 356.768 26.6742 357.406 26.0356C358.062 25.397 358.39 24.4477 358.39 23.1877V21.0906L358.649 17.5955L358.597 14.0744V11.0712H362.429V22.6699C362.429 25.2589 361.756 27.1661 360.409 28.3916C359.063 29.6171 357.13 30.2298 354.61 30.2298ZM353.989 24.3269C352.694 24.3269 351.521 24.0507 350.468 23.4984C349.432 22.9288 348.595 22.1435 347.956 21.1424C347.335 20.1241 347.024 18.9417 347.024 17.5955C347.024 16.2319 347.335 15.0496 347.956 14.0485C348.595 13.0302 349.432 12.2449 350.468 11.6925C351.521 11.1402 352.694 10.8641 353.989 10.8641C355.162 10.8641 356.198 11.1057 357.095 11.589C357.993 12.055 358.692 12.7885 359.193 13.7896C359.693 14.7734 359.943 16.0421 359.943 17.5955C359.943 19.1316 359.693 20.4002 359.193 21.4013C358.692 22.3851 357.993 23.1187 357.095 23.6019C356.198 24.0852 355.162 24.3269 353.989 24.3269ZM354.791 21.0129C355.499 21.0129 356.129 20.8749 356.681 20.5987C357.234 20.3053 357.665 19.8997 357.976 19.3819C358.286 18.8641 358.442 18.2686 358.442 17.5955C358.442 16.9051 358.286 16.3096 357.976 15.809C357.665 15.2912 357.234 14.8943 356.681 14.6181C356.129 14.3247 355.499 14.178 354.791 14.178C354.084 14.178 353.454 14.3247 352.901 14.6181C352.349 14.8943 351.909 15.2912 351.581 15.809C351.27 16.3096 351.115 16.9051 351.115 17.5955C351.115 18.2686 351.27 18.8641 351.581 19.3819C351.909 19.8997 352.349 20.3053 352.901 20.5987C353.454 20.8749 354.084 21.0129 354.791 21.0129ZM373.52 25V5.78962H377.559V25H373.52ZM389.851 25V22.2815L389.592 21.6861V16.8188C389.592 15.9558 389.325 15.2826 388.789 14.7993C388.272 14.3161 387.469 14.0744 386.382 14.0744C385.64 14.0744 384.906 14.1952 384.181 14.4369C383.473 14.6613 382.869 14.9719 382.369 15.3689L380.919 12.5469C381.678 12.0118 382.593 11.5976 383.663 11.3042C384.733 11.0108 385.821 10.8641 386.925 10.8641C389.048 10.8641 390.697 11.3646 391.87 12.3657C393.044 13.3668 393.631 14.9288 393.631 17.0518V25H389.851ZM385.605 25.2071C384.518 25.2071 383.586 25.0259 382.809 24.6634C382.032 24.2837 381.437 23.7745 381.022 23.1359C380.608 22.4973 380.401 21.781 380.401 20.9871C380.401 20.1586 380.6 19.4336 380.997 18.8123C381.411 18.1909 382.058 17.7076 382.938 17.3624C383.819 17 384.966 16.8188 386.382 16.8188H390.084V19.1747H386.822C385.873 19.1747 385.217 19.3301 384.854 19.6408C384.509 19.9514 384.336 20.3398 384.336 20.8058C384.336 21.3236 384.535 21.7379 384.932 22.0485C385.346 22.342 385.907 22.4887 386.615 22.4887C387.288 22.4887 387.892 22.3333 388.427 22.0227C388.962 21.6947 389.35 21.2201 389.592 20.5987L390.213 22.4628C389.92 23.3603 389.385 24.0421 388.608 24.5081C387.832 24.9741 386.83 25.2071 385.605 25.2071ZM401.972 25.2071C400.781 25.2071 399.634 25.069 398.529 24.7929C397.442 24.4995 396.579 24.137 395.94 23.7055L397.286 20.8058C397.925 21.2028 398.676 21.5307 399.539 21.7896C400.419 22.0313 401.282 22.1521 402.128 22.1521C403.06 22.1521 403.716 22.0399 404.095 21.8155C404.492 21.5911 404.691 21.2805 404.691 20.8835C404.691 20.5555 404.535 20.3139 404.225 20.1586C403.931 19.986 403.534 19.8565 403.034 19.7702C402.533 19.6839 401.981 19.5976 401.377 19.5113C400.79 19.425 400.195 19.3128 399.59 19.1747C398.986 19.0194 398.434 18.795 397.934 18.5016C397.433 18.2082 397.027 17.8112 396.717 17.3107C396.423 16.8101 396.277 16.1629 396.277 15.3689C396.277 14.4887 396.527 13.712 397.027 13.0388C397.545 12.3657 398.287 11.8392 399.254 11.4595C400.22 11.0626 401.377 10.8641 402.723 10.8641C403.672 10.8641 404.639 10.9676 405.623 11.1747C406.607 11.3819 407.427 11.6839 408.082 12.0809L406.736 14.9547C406.063 14.5577 405.381 14.2902 404.691 14.1521C404.018 13.9967 403.362 13.9191 402.723 13.9191C401.826 13.9191 401.17 14.0399 400.756 14.2815C400.341 14.5232 400.134 14.8339 400.134 15.2136C400.134 15.5588 400.281 15.8177 400.574 15.9903C400.885 16.1629 401.291 16.301 401.791 16.4045C402.292 16.5081 402.835 16.603 403.422 16.6893C404.026 16.7584 404.63 16.8705 405.234 17.0259C405.839 17.1812 406.382 17.4056 406.866 17.699C407.366 17.9752 407.772 18.3635 408.082 18.8641C408.393 19.3473 408.548 19.986 408.548 20.7799C408.548 21.6429 408.29 22.411 407.772 23.0841C407.254 23.74 406.503 24.2578 405.519 24.6375C404.553 25.0173 403.37 25.2071 401.972 25.2071ZM416.736 25.2071C415.096 25.2071 413.819 24.7929 412.904 23.9644C411.99 23.1187 411.532 21.8673 411.532 20.2104V7.99027H415.571V20.1586C415.571 20.7454 415.726 21.2028 416.037 21.5307C416.348 21.8414 416.771 21.9968 417.306 21.9968C417.944 21.9968 418.488 21.8242 418.937 21.479L420.024 24.3269C419.61 24.6203 419.109 24.8447 418.523 25C417.953 25.1381 417.357 25.2071 416.736 25.2071ZM409.383 14.4887V11.3819H419.04V14.4887H409.383ZM430.115 25V10.7605C430.115 9.18984 430.581 7.93849 431.513 7.00645C432.445 6.05715 433.775 5.5825 435.501 5.5825C436.087 5.5825 436.648 5.64291 437.183 5.76373C437.736 5.88455 438.202 6.07441 438.581 6.33331L437.52 9.25888C437.296 9.10354 437.045 8.98272 436.769 8.89642C436.493 8.81012 436.2 8.76697 435.889 8.76697C435.302 8.76697 434.845 8.93957 434.517 9.28477C434.206 9.61271 434.051 10.1133 434.051 10.7864V12.0809L434.154 13.8155V25H430.115ZM427.967 14.4887V11.3819H437.623V14.4887H427.967ZM445.513 25.2071C444.356 25.2071 443.321 24.9827 442.406 24.534C441.508 24.0852 440.809 23.4034 440.309 22.4887C439.808 21.5566 439.558 20.3743 439.558 18.9417V11.0712H443.597V18.3463C443.597 19.5027 443.838 20.3571 444.322 20.9094C444.822 21.4444 445.521 21.712 446.419 21.712C447.04 21.712 447.592 21.5825 448.076 21.3236C448.559 21.0475 448.939 20.6332 449.215 20.0809C449.491 19.5113 449.629 18.8037 449.629 17.9579V11.0712H453.668V25H449.836V21.1683L450.535 22.2815C450.069 23.2481 449.379 23.9817 448.464 24.4822C447.567 24.9655 446.583 25.2071 445.513 25.2071ZM465.876 10.8641C466.98 10.8641 467.964 11.0884 468.827 11.5372C469.707 11.9687 470.398 12.6418 470.898 13.5566C471.399 14.4541 471.649 15.6106 471.649 17.0259V25H467.61V17.6472C467.61 16.5253 467.36 15.6969 466.86 15.1618C466.376 14.6267 465.686 14.3592 464.788 14.3592C464.15 14.3592 463.572 14.4973 463.054 14.7734C462.553 15.0323 462.156 15.438 461.863 15.9903C461.587 16.5426 461.449 17.2503 461.449 18.1133V25H457.41V11.0712H461.267V14.9288L460.542 13.7637C461.043 12.8317 461.759 12.1154 462.691 11.6149C463.623 11.1143 464.685 10.8641 465.876 10.8641ZM481.392 25.2071C480.08 25.2071 478.898 24.9137 477.845 24.3269C476.792 23.7228 475.955 22.8856 475.334 21.8155C474.73 20.7454 474.428 19.4854 474.428 18.0356C474.428 16.5685 474.73 15.2999 475.334 14.2298C475.955 13.1596 476.792 12.3312 477.845 11.7443C478.898 11.1575 480.08 10.8641 481.392 10.8641C482.566 10.8641 483.593 11.123 484.473 11.6408C485.353 12.1586 486.035 12.9439 486.518 13.9967C487.001 15.0496 487.243 16.3959 487.243 18.0356C487.243 19.658 487.01 21.0043 486.544 22.0744C486.078 23.1273 485.405 23.9126 484.525 24.4304C483.662 24.9482 482.617 25.2071 481.392 25.2071ZM482.091 21.8932C482.747 21.8932 483.342 21.7379 483.877 21.4272C484.412 21.1165 484.835 20.6764 485.146 20.1068C485.474 19.5199 485.638 18.8295 485.638 18.0356C485.638 17.2244 485.474 16.534 485.146 15.9644C484.835 15.3948 484.412 14.9547 483.877 14.644C483.342 14.3333 482.747 14.178 482.091 14.178C481.418 14.178 480.814 14.3333 480.279 14.644C479.744 14.9547 479.312 15.3948 478.984 15.9644C478.673 16.534 478.518 17.2244 478.518 18.0356C478.518 18.8295 478.673 19.5199 478.984 20.1068C479.312 20.6764 479.744 21.1165 480.279 21.4272C480.814 21.7379 481.418 21.8932 482.091 21.8932ZM485.741 25V22.1521L485.819 18.0097L485.56 13.8932V5.78962H489.599V25H485.741ZM493.337 25V11.0712H497.376V25H493.337ZM495.357 9.12943C494.614 9.12943 494.01 8.91368 493.544 8.48218C493.078 8.05068 492.845 7.51562 492.845 6.877C492.845 6.23838 493.078 5.70332 493.544 5.27182C494.01 4.84032 494.614 4.62457 495.357 4.62457C496.099 4.62457 496.703 4.83169 497.169 5.24593C497.635 5.64291 497.868 6.16071 497.868 6.79933C497.868 7.47247 497.635 8.03342 497.169 8.48218C496.72 8.91368 496.116 9.12943 495.357 9.12943ZM509.59 10.8641C510.695 10.8641 511.679 11.0884 512.542 11.5372C513.422 11.9687 514.113 12.6418 514.613 13.5566C515.114 14.4541 515.364 15.6106 515.364 17.0259V25H511.325V17.6472C511.325 16.5253 511.075 15.6969 510.574 15.1618C510.091 14.6267 509.401 14.3592 508.503 14.3592C507.864 14.3592 507.286 14.4973 506.768 14.7734C506.268 15.0323 505.871 15.438 505.577 15.9903C505.301 16.5426 505.163 17.2503 505.163 18.1133V25H501.124V11.0712H504.982V14.9288L504.257 13.7637C504.758 12.8317 505.474 12.1154 506.406 11.6149C507.338 11.1143 508.399 10.8641 509.59 10.8641ZM525.676 30.2298C524.364 30.2298 523.096 30.0658 521.87 29.7379C520.662 29.4272 519.652 28.9525 518.841 28.3139L520.446 25.4142C521.033 25.8975 521.775 26.2772 522.673 26.5534C523.588 26.8468 524.485 26.9935 525.366 26.9935C526.798 26.9935 527.834 26.6742 528.472 26.0356C529.128 25.397 529.456 24.4477 529.456 23.1877V21.0906L529.715 17.5955L529.663 14.0744V11.0712H533.495V22.6699C533.495 25.2589 532.822 27.1661 531.476 28.3916C530.129 29.6171 528.196 30.2298 525.676 30.2298ZM525.055 24.3269C523.76 24.3269 522.587 24.0507 521.534 23.4984C520.498 22.9288 519.661 22.1435 519.022 21.1424C518.401 20.1241 518.09 18.9417 518.09 17.5955C518.09 16.2319 518.401 15.0496 519.022 14.0485C519.661 13.0302 520.498 12.2449 521.534 11.6925C522.587 11.1402 523.76 10.8641 525.055 10.8641C526.229 10.8641 527.264 11.1057 528.162 11.589C529.059 12.055 529.758 12.7885 530.259 13.7896C530.759 14.7734 531.01 16.0421 531.01 17.5955C531.01 19.1316 530.759 20.4002 530.259 21.4013C529.758 22.3851 529.059 23.1187 528.162 23.6019C527.264 24.0852 526.229 24.3269 525.055 24.3269ZM525.857 21.0129C526.565 21.0129 527.195 20.8749 527.747 20.5987C528.3 20.3053 528.731 19.8997 529.042 19.3819C529.353 18.8641 529.508 18.2686 529.508 17.5955C529.508 16.9051 529.353 16.3096 529.042 15.809C528.731 15.2912 528.3 14.8943 527.747 14.6181C527.195 14.3247 526.565 14.178 525.857 14.178C525.15 14.178 524.52 14.3247 523.967 14.6181C523.415 14.8943 522.975 15.2912 522.647 15.809C522.336 16.3096 522.181 16.9051 522.181 17.5955C522.181 18.2686 522.336 18.8641 522.647 19.3819C522.975 19.8997 523.415 20.3053 523.967 20.5987C524.52 20.8749 525.15 21.0129 525.857 21.0129ZM544.586 25V11.0712H548.444V15.0065L547.9 13.8673C548.314 12.8835 548.979 12.1413 549.894 11.6408C550.808 11.123 551.922 10.8641 553.233 10.8641V14.5922C553.061 14.575 552.906 14.5663 552.767 14.5663C552.629 14.5491 552.483 14.5404 552.327 14.5404C551.223 14.5404 550.325 14.8597 549.635 15.4984C548.962 16.1197 548.625 17.0949 548.625 18.4239V25H544.586ZM562.162 25.2071C560.677 25.2071 559.357 24.8964 558.2 24.2751C557.061 23.6537 556.155 22.808 555.482 21.7379C554.826 20.6505 554.498 19.4164 554.498 18.0356C554.498 16.6375 554.826 15.4034 555.482 14.3333C556.155 13.2459 557.061 12.4002 558.2 11.7961C559.357 11.1747 560.677 10.8641 562.162 10.8641C563.629 10.8641 564.941 11.1747 566.097 11.7961C567.253 12.4002 568.16 13.2373 568.815 14.3074C569.471 15.3775 569.799 16.6203 569.799 18.0356C569.799 19.4164 569.471 20.6505 568.815 21.7379C568.16 22.808 567.253 23.6537 566.097 24.2751C564.941 24.8964 563.629 25.2071 562.162 25.2071ZM562.162 21.8932C562.835 21.8932 563.439 21.7379 563.974 21.4272C564.509 21.1165 564.932 20.6764 565.243 20.1068C565.553 19.5199 565.709 18.8295 565.709 18.0356C565.709 17.2244 565.553 16.534 565.243 15.9644C564.932 15.3948 564.509 14.9547 563.974 14.644C563.439 14.3333 562.835 14.178 562.162 14.178C561.489 14.178 560.884 14.3333 560.349 14.644C559.814 14.9547 559.383 15.3948 559.055 15.9644C558.744 16.534 558.589 17.2244 558.589 18.0356C558.589 18.8295 558.744 19.5199 559.055 20.1068C559.383 20.6764 559.814 21.1165 560.349 21.4272C560.884 21.7379 561.489 21.8932 562.162 21.8932ZM578.376 25.2071C577.219 25.2071 576.184 24.9827 575.269 24.534C574.372 24.0852 573.673 23.4034 573.172 22.4887C572.671 21.5566 572.421 20.3743 572.421 18.9417V11.0712H576.46V18.3463C576.46 19.5027 576.702 20.3571 577.185 20.9094C577.685 21.4444 578.385 21.712 579.282 21.712C579.903 21.712 580.456 21.5825 580.939 21.3236C581.422 21.0475 581.802 20.6332 582.078 20.0809C582.354 19.5113 582.492 18.8037 582.492 17.9579V11.0712H586.531V25H582.7V21.1683L583.399 22.2815C582.933 23.2481 582.242 23.9817 581.327 24.4822C580.43 24.9655 579.446 25.2071 578.376 25.2071ZM598.739 10.8641C599.844 10.8641 600.827 11.0884 601.69 11.5372C602.571 11.9687 603.261 12.6418 603.762 13.5566C604.262 14.4541 604.512 15.6106 604.512 17.0259V25H600.474V17.6472C600.474 16.5253 600.223 15.6969 599.723 15.1618C599.24 14.6267 598.549 14.3592 597.652 14.3592C597.013 14.3592 596.435 14.4973 595.917 14.7734C595.416 15.0323 595.019 15.438 594.726 15.9903C594.45 16.5426 594.312 17.2503 594.312 18.1133V25H590.273V11.0712H594.131V14.9288L593.406 13.7637C593.906 12.8317 594.622 12.1154 595.555 11.6149C596.487 11.1143 597.548 10.8641 598.739 10.8641ZM614.255 25.2071C612.943 25.2071 611.761 24.9137 610.708 24.3269C609.655 23.7228 608.818 22.8856 608.197 21.8155C607.593 20.7454 607.291 19.4854 607.291 18.0356C607.291 16.5685 607.593 15.2999 608.197 14.2298C608.818 13.1596 609.655 12.3312 610.708 11.7443C611.761 11.1575 612.943 10.8641 614.255 10.8641C615.429 10.8641 616.456 11.123 617.336 11.6408C618.216 12.1586 618.898 12.9439 619.381 13.9967C619.865 15.0496 620.106 16.3959 620.106 18.0356C620.106 19.658 619.873 21.0043 619.407 22.0744C618.941 23.1273 618.268 23.9126 617.388 24.4304C616.525 24.9482 615.481 25.2071 614.255 25.2071ZM614.954 21.8932C615.61 21.8932 616.206 21.7379 616.741 21.4272C617.276 21.1165 617.699 20.6764 618.009 20.1068C618.337 19.5199 618.501 18.8295 618.501 18.0356C618.501 17.2244 618.337 16.534 618.009 15.9644C617.699 15.3948 617.276 14.9547 616.741 14.644C616.206 14.3333 615.61 14.178 614.954 14.178C614.281 14.178 613.677 14.3333 613.142 14.644C612.607 14.9547 612.175 15.3948 611.847 15.9644C611.537 16.534 611.381 17.2244 611.381 18.0356C611.381 18.8295 611.537 19.5199 611.847 20.1068C612.175 20.6764 612.607 21.1165 613.142 21.4272C613.677 21.7379 614.281 21.8932 614.954 21.8932ZM618.605 25V22.1521L618.682 18.0097L618.423 13.8932V5.78962H622.462V25H618.605ZM642.076 25V22.2815L641.817 21.6861V16.8188C641.817 15.9558 641.55 15.2826 641.015 14.7993C640.497 14.3161 639.694 14.0744 638.607 14.0744C637.865 14.0744 637.131 14.1952 636.406 14.4369C635.699 14.6613 635.095 14.9719 634.594 15.3689L633.144 12.5469C633.904 12.0118 634.818 11.5976 635.889 11.3042C636.959 11.0108 638.046 10.8641 639.151 10.8641C641.274 10.8641 642.922 11.3646 644.096 12.3657C645.269 13.3668 645.856 14.9288 645.856 17.0518V25H642.076ZM637.83 25.2071C636.743 25.2071 635.811 25.0259 635.034 24.6634C634.257 24.2837 633.662 23.7745 633.248 23.1359C632.834 22.4973 632.626 21.781 632.626 20.9871C632.626 20.1586 632.825 19.4336 633.222 18.8123C633.636 18.1909 634.283 17.7076 635.164 17.3624C636.044 17 637.192 16.8188 638.607 16.8188H642.309V19.1747H639.047C638.098 19.1747 637.442 19.3301 637.079 19.6408C636.734 19.9514 636.562 20.3398 636.562 20.8058C636.562 21.3236 636.76 21.7379 637.157 22.0485C637.571 22.342 638.132 22.4887 638.84 22.4887C639.513 22.4887 640.117 22.3333 640.652 22.0227C641.187 21.6947 641.576 21.2201 641.817 20.5987L642.439 22.4628C642.145 23.3603 641.61 24.0421 640.834 24.5081C640.057 24.9741 639.056 25.2071 637.83 25.2071ZM656.163 30.2298C654.851 30.2298 653.582 30.0658 652.357 29.7379C651.149 29.4272 650.139 28.9525 649.328 28.3139L650.933 25.4142C651.52 25.8975 652.262 26.2772 653.16 26.5534C654.074 26.8468 654.972 26.9935 655.852 26.9935C657.285 26.9935 658.32 26.6742 658.959 26.0356C659.615 25.397 659.943 24.4477 659.943 23.1877V21.0906L660.202 17.5955L660.15 14.0744V11.0712H663.982V22.6699C663.982 25.2589 663.308 27.1661 661.962 28.3916C660.616 29.6171 658.683 30.2298 656.163 30.2298ZM655.541 24.3269C654.247 24.3269 653.073 24.0507 652.02 23.4984C650.985 22.9288 650.148 22.1435 649.509 21.1424C648.888 20.1241 648.577 18.9417 648.577 17.5955C648.577 16.2319 648.888 15.0496 649.509 14.0485C650.148 13.0302 650.985 12.2449 652.02 11.6925C653.073 11.1402 654.247 10.8641 655.541 10.8641C656.715 10.8641 657.751 11.1057 658.648 11.589C659.546 12.055 660.245 12.7885 660.745 13.7896C661.246 14.7734 661.496 16.0421 661.496 17.5955C661.496 19.1316 661.246 20.4002 660.745 21.4013C660.245 22.3851 659.546 23.1187 658.648 23.6019C657.751 24.0852 656.715 24.3269 655.541 24.3269ZM656.344 21.0129C657.052 21.0129 657.682 20.8749 658.234 20.5987C658.786 20.3053 659.218 19.8997 659.528 19.3819C659.839 18.8641 659.995 18.2686 659.995 17.5955C659.995 16.9051 659.839 16.3096 659.528 15.809C659.218 15.2912 658.786 14.8943 658.234 14.6181C657.682 14.3247 657.052 14.178 656.344 14.178C655.636 14.178 655.006 14.3247 654.454 14.6181C653.902 14.8943 653.462 15.2912 653.134 15.809C652.823 16.3096 652.668 16.9051 652.668 17.5955C652.668 18.2686 652.823 18.8641 653.134 19.3819C653.462 19.8997 653.902 20.3053 654.454 20.5987C655.006 20.8749 655.636 21.0129 656.344 21.0129ZM676.284 25V22.2815L676.025 21.6861V16.8188C676.025 15.9558 675.758 15.2826 675.223 14.7993C674.705 14.3161 673.902 14.0744 672.815 14.0744C672.073 14.0744 671.339 14.1952 670.614 14.4369C669.907 14.6613 669.303 14.9719 668.802 15.3689L667.352 12.5469C668.112 12.0118 669.027 11.5976 670.097 11.3042C671.167 11.0108 672.254 10.8641 673.359 10.8641C675.482 10.8641 677.13 11.3646 678.304 12.3657C679.477 13.3668 680.064 14.9288 680.064 17.0518V25H676.284ZM672.038 25.2071C670.951 25.2071 670.019 25.0259 669.242 24.6634C668.466 24.2837 667.87 23.7745 667.456 23.1359C667.042 22.4973 666.835 21.781 666.835 20.9871C666.835 20.1586 667.033 19.4336 667.43 18.8123C667.844 18.1909 668.491 17.7076 669.372 17.3624C670.252 17 671.4 16.8188 672.815 16.8188H676.517V19.1747H673.255C672.306 19.1747 671.65 19.3301 671.288 19.6408C670.942 19.9514 670.77 20.3398 670.77 20.8058C670.77 21.3236 670.968 21.7379 671.365 22.0485C671.78 22.342 672.34 22.4887 673.048 22.4887C673.721 22.4887 674.325 22.3333 674.86 22.0227C675.395 21.6947 675.784 21.2201 676.025 20.5987L676.647 22.4628C676.353 23.3603 675.818 24.0421 675.042 24.5081C674.265 24.9741 673.264 25.2071 672.038 25.2071ZM683.72 25V11.0712H687.759V25H683.72ZM685.739 9.12943C684.997 9.12943 684.393 8.91368 683.927 8.48218C683.461 8.05068 683.228 7.51562 683.228 6.877C683.228 6.23838 683.461 5.70332 683.927 5.27182C684.393 4.84032 684.997 4.62457 685.739 4.62457C686.481 4.62457 687.085 4.83169 687.551 5.24593C688.017 5.64291 688.25 6.16071 688.25 6.79933C688.25 7.47247 688.017 8.03342 687.551 8.48218C687.103 8.91368 686.499 9.12943 685.739 9.12943ZM699.973 10.8641C701.078 10.8641 702.061 11.0884 702.924 11.5372C703.805 11.9687 704.495 12.6418 704.996 13.5566C705.496 14.4541 705.746 15.6106 705.746 17.0259V25H701.708V17.6472C701.708 16.5253 701.457 15.6969 700.957 15.1618C700.473 14.6267 699.783 14.3592 698.886 14.3592C698.247 14.3592 697.669 14.4973 697.151 14.7734C696.65 15.0323 696.253 15.438 695.96 15.9903C695.684 16.5426 695.546 17.2503 695.546 18.1133V25H691.507V11.0712H695.365V14.9288L694.64 13.7637C695.14 12.8317 695.856 12.1154 696.788 11.6149C697.721 11.1143 698.782 10.8641 699.973 10.8641ZM714.094 25.2071C712.903 25.2071 711.755 25.069 710.65 24.7929C709.563 24.4995 708.7 24.137 708.061 23.7055L709.407 20.8058C710.046 21.2028 710.797 21.5307 711.66 21.7896C712.54 22.0313 713.403 22.1521 714.249 22.1521C715.181 22.1521 715.837 22.0399 716.216 21.8155C716.613 21.5911 716.812 21.2805 716.812 20.8835C716.812 20.5555 716.657 20.3139 716.346 20.1586C716.053 19.986 715.656 19.8565 715.155 19.7702C714.654 19.6839 714.102 19.5976 713.498 19.5113C712.911 19.425 712.316 19.3128 711.712 19.1747C711.108 19.0194 710.555 18.795 710.055 18.5016C709.554 18.2082 709.149 17.8112 708.838 17.3107C708.544 16.8101 708.398 16.1629 708.398 15.3689C708.398 14.4887 708.648 13.712 709.149 13.0388C709.666 12.3657 710.408 11.8392 711.375 11.4595C712.342 11.0626 713.498 10.8641 714.844 10.8641C715.794 10.8641 716.76 10.9676 717.744 11.1747C718.728 11.3819 719.548 11.6839 720.204 12.0809L718.857 14.9547C718.184 14.5577 717.502 14.2902 716.812 14.1521C716.139 13.9967 715.483 13.9191 714.844 13.9191C713.947 13.9191 713.291 14.0399 712.877 14.2815C712.462 14.5232 712.255 14.8339 712.255 15.2136C712.255 15.5588 712.402 15.8177 712.695 15.9903C713.006 16.1629 713.412 16.301 713.912 16.4045C714.413 16.5081 714.957 16.603 715.543 16.6893C716.147 16.7584 716.752 16.8705 717.356 17.0259C717.96 17.1812 718.503 17.4056 718.987 17.699C719.487 17.9752 719.893 18.3635 720.204 18.8641C720.514 19.3473 720.67 19.986 720.67 20.7799C720.67 21.6429 720.411 22.411 719.893 23.0841C719.375 23.74 718.624 24.2578 717.64 24.6375C716.674 25.0173 715.492 25.2071 714.094 25.2071ZM728.857 25.2071C727.218 25.2071 725.94 24.7929 725.026 23.9644C724.111 23.1187 723.653 21.8673 723.653 20.2104V7.99027H727.692V20.1586C727.692 20.7454 727.848 21.2028 728.158 21.5307C728.469 21.8414 728.892 21.9968 729.427 21.9968C730.065 21.9968 730.609 21.8242 731.058 21.479L732.145 24.3269C731.731 24.6203 731.23 24.8447 730.644 25C730.074 25.1381 729.479 25.2071 728.857 25.2071ZM721.504 14.4887V11.3819H731.161V14.4887H721.504ZM746.534 25V17.5955L747.492 20.1327L739.518 6.877H743.971L750.081 17.0518H747.518L753.654 6.877H757.771L749.796 20.1327L750.728 17.5955V25H746.534ZM764.611 25.2071C763.023 25.2071 761.625 24.8964 760.417 24.2751C759.226 23.6537 758.302 22.808 757.647 21.7379C756.991 20.6505 756.663 19.4164 756.663 18.0356C756.663 16.6375 756.982 15.4034 757.621 14.3333C758.277 13.2459 759.165 12.4002 760.287 11.7961C761.409 11.1747 762.678 10.8641 764.093 10.8641C765.457 10.8641 766.682 11.1575 767.77 11.7443C768.874 12.3139 769.746 13.1424 770.384 14.2298C771.023 15.2999 771.342 16.5857 771.342 18.0874C771.342 18.2427 771.334 18.4239 771.316 18.6311C771.299 18.8209 771.282 19.0021 771.265 19.1747H759.951V16.8188H769.142L767.588 17.5178C767.588 16.7929 767.442 16.1629 767.148 15.6278C766.855 15.0928 766.449 14.6785 765.931 14.3851C765.414 14.0744 764.809 13.9191 764.119 13.9191C763.429 13.9191 762.816 14.0744 762.281 14.3851C761.763 14.6785 761.357 15.1014 761.064 15.6537C760.771 16.1888 760.624 16.8274 760.624 17.5696V18.1909C760.624 18.9504 760.788 19.6235 761.116 20.2104C761.461 20.7799 761.936 21.2201 762.54 21.5307C763.161 21.8242 763.886 21.9709 764.714 21.9709C765.457 21.9709 766.104 21.8587 766.656 21.6343C767.226 21.4099 767.744 21.0733 768.21 20.6246L770.359 22.9547C769.72 23.6796 768.917 24.2406 767.951 24.6375C766.984 25.0173 765.871 25.2071 764.611 25.2071ZM782.196 25V22.2815L781.937 21.6861V16.8188C781.937 15.9558 781.669 15.2826 781.134 14.7993C780.616 14.3161 779.814 14.0744 778.726 14.0744C777.984 14.0744 777.251 14.1952 776.526 14.4369C775.818 14.6613 775.214 14.9719 774.714 15.3689L773.264 12.5469C774.023 12.0118 774.938 11.5976 776.008 11.3042C777.078 11.0108 778.166 10.8641 779.27 10.8641C781.393 10.8641 783.041 11.3646 784.215 12.3657C785.389 13.3668 785.976 14.9288 785.976 17.0518V25H782.196ZM777.95 25.2071C776.862 25.2071 775.93 25.0259 775.154 24.6634C774.377 24.2837 773.781 23.7745 773.367 23.1359C772.953 22.4973 772.746 21.781 772.746 20.9871C772.746 20.1586 772.944 19.4336 773.341 18.8123C773.756 18.1909 774.403 17.7076 775.283 17.3624C776.163 17 777.311 16.8188 778.726 16.8188H782.429V19.1747H779.167C778.217 19.1747 777.561 19.3301 777.199 19.6408C776.854 19.9514 776.681 20.3398 776.681 20.8058C776.681 21.3236 776.88 21.7379 777.277 22.0485C777.691 22.342 778.252 22.4887 778.959 22.4887C779.633 22.4887 780.237 22.3333 780.772 22.0227C781.307 21.6947 781.695 21.2201 781.937 20.5987L782.558 22.4628C782.265 23.3603 781.73 24.0421 780.953 24.5081C780.176 24.9741 779.175 25.2071 777.95 25.2071ZM789.631 25V11.0712H793.489V15.0065L792.945 13.8673C793.359 12.8835 794.024 12.1413 794.938 11.6408C795.853 11.123 796.966 10.8641 798.278 10.8641V14.5922C798.106 14.575 797.95 14.5663 797.812 14.5663C797.674 14.5491 797.527 14.5404 797.372 14.5404C796.267 14.5404 795.37 14.8597 794.68 15.4984C794.006 16.1197 793.67 17.0949 793.67 18.4239V25H789.631Z" fill="white"/>
</svg>
