<svg width="341" height="81" viewBox="0 0 341 81" fill="none" xmlns="http://www.w3.org/2000/svg">
<rect width="341" height="81" rx="40.5" fill="url(#paint0_linear_12_278)"/>
<path d="M107.007 53.21C105.187 53.21 103.437 52.9183 101.757 52.335C100.1 51.7283 98.8167 50.9583 97.9067 50.025L98.9217 48.03C99.7851 48.87 100.94 49.5817 102.387 50.165C103.857 50.725 105.397 51.005 107.007 51.005C108.547 51.005 109.795 50.8183 110.752 50.445C111.732 50.0483 112.443 49.5233 112.887 48.87C113.353 48.2167 113.587 47.4933 113.587 46.7C113.587 45.7433 113.307 44.9733 112.747 44.39C112.21 43.8067 111.498 43.3517 110.612 43.025C109.725 42.675 108.745 42.3717 107.672 42.115C106.598 41.8583 105.525 41.59 104.452 41.31C103.378 41.0067 102.387 40.61 101.477 40.12C100.59 39.63 99.8667 38.9883 99.3067 38.195C98.7701 37.3783 98.5017 36.3167 98.5017 35.01C98.5017 33.7967 98.8167 32.6883 99.4467 31.685C100.1 30.6583 101.092 29.8417 102.422 29.235C103.752 28.605 105.455 28.29 107.532 28.29C108.908 28.29 110.273 28.4883 111.627 28.885C112.98 29.2583 114.147 29.7833 115.127 30.46L114.252 32.525C113.202 31.825 112.082 31.3117 110.892 30.985C109.725 30.6583 108.593 30.495 107.497 30.495C106.027 30.495 104.813 30.6933 103.857 31.09C102.9 31.4867 102.188 32.0233 101.722 32.7C101.278 33.3533 101.057 34.1 101.057 34.94C101.057 35.8967 101.325 36.6667 101.862 37.25C102.422 37.8333 103.145 38.2883 104.032 38.615C104.942 38.9417 105.933 39.2333 107.007 39.49C108.08 39.7467 109.142 40.0267 110.192 40.33C111.265 40.6333 112.245 41.03 113.132 41.52C114.042 41.9867 114.765 42.6167 115.302 43.41C115.862 44.2033 116.142 45.2417 116.142 46.525C116.142 47.715 115.815 48.8233 115.162 49.85C114.508 50.8533 113.505 51.67 112.152 52.3C110.822 52.9067 109.107 53.21 107.007 53.21ZM133.405 53.21C130.278 53.21 127.817 52.3117 126.02 50.515C124.223 48.7183 123.325 46.0583 123.325 42.535V28.5H125.915V42.43C125.915 45.3233 126.568 47.4583 127.875 48.835C129.182 50.2117 131.025 50.9 133.405 50.9C135.808 50.9 137.663 50.2117 138.97 48.835C140.277 47.4583 140.93 45.3233 140.93 42.43V28.5H143.45V42.535C143.45 46.0583 142.552 48.7183 140.755 50.515C138.982 52.3117 136.532 53.21 133.405 53.21ZM153.005 53V28.5H163.575C166.305 28.5 168.416 29.0483 169.91 30.145C171.426 31.2417 172.185 32.7933 172.185 34.8C172.185 36.13 171.87 37.25 171.24 38.16C170.633 39.07 169.793 39.7583 168.72 40.225C167.67 40.6917 166.515 40.925 165.255 40.925L165.85 40.085C167.413 40.085 168.755 40.33 169.875 40.82C171.018 41.2867 171.905 41.9983 172.535 42.955C173.165 43.8883 173.48 45.055 173.48 46.455C173.48 48.5317 172.71 50.1417 171.17 51.285C169.653 52.4283 167.355 53 164.275 53H153.005ZM155.595 50.865H164.24C166.386 50.865 168.031 50.5033 169.175 49.78C170.318 49.0333 170.89 47.855 170.89 46.245C170.89 44.6583 170.318 43.5033 169.175 42.78C168.031 42.0333 166.386 41.66 164.24 41.66H155.315V39.525H163.4C165.36 39.525 166.876 39.1517 167.95 38.405C169.046 37.6583 169.595 36.55 169.595 35.08C169.595 33.5867 169.046 32.4783 167.95 31.755C166.876 31.0083 165.36 30.635 163.4 30.635H155.595V50.865ZM181.141 53V28.5H183.276L194.476 47.61H193.356L204.451 28.5H206.586V53H204.101V32.385H204.696L194.476 49.885H193.251L182.961 32.385H183.626V53H181.141ZM216.319 53V28.5H218.909V53H216.319ZM233.391 53V30.74H224.781V28.5H244.591V30.74H235.981V53H233.391Z" fill="white"/>
<defs>
<linearGradient id="paint0_linear_12_278" x1="0" y1="40.8295" x2="341" y2="40.8295" gradientUnits="userSpaceOnUse">
<stop stop-color="#4CAFF4"/>
<stop offset="0.315625" stop-color="#7256F5"/>
<stop offset="0.633333" stop-color="#9A47D8"/>
<stop offset="1" stop-color="#D93869"/>
</linearGradient>
</defs>
</svg>
